<svg xmlns="http://www.w3.org/2000/svg" xmlns:xlink="http://www.w3.org/1999/xlink" viewBox="0 0 1920 1080"><defs><style>.cls-1{fill:none;}.cls-2{isolation:isolate;}.cls-3{clip-path:url(#clip-path);}.cls-4{fill:url(#Gradient_bez_nazwy_9);}.cls-5{clip-path:url(#clip-path-2);}.cls-6{fill:url(#Gradient_bez_nazwy_9-2);}.cls-7{fill:url(#Gradient_bez_nazwy_9-3);}.cls-8{fill:#d8d8d8;}.cls-116,.cls-119,.cls-8{mix-blend-mode:multiply;}.cls-9{fill:url(#Gradient_bez_nazwy_8);}.cls-10{fill:url(#Gradient_bez_nazwy_8-2);}.cls-11{fill:url(#Gradient_bez_nazwy_8-3);}.cls-12{fill:url(#Gradient_bez_nazwy_7);}.cls-13{fill:url(#Gradient_bez_nazwy_8-4);}.cls-14{fill:url(#Gradient_bez_nazwy_8-5);}.cls-15{fill:url(#Gradient_bez_nazwy_8-6);}.cls-16{fill:url(#Gradient_bez_nazwy_8-7);}.cls-17{fill:url(#Gradient_bez_nazwy_8-8);}.cls-18{fill:url(#Gradient_bez_nazwy_13);}.cls-19{fill:url(#Gradient_bez_nazwy_15);}.cls-20,.cls-59{opacity:0.7;}.cls-21,.cls-75{fill:#fff;}.cls-22{fill:#f8fbf7;}.cls-119,.cls-22,.cls-55{opacity:0.3;}.cls-23{fill:url(#Gradient_bez_nazwy_13-2);}.cls-24{opacity:0.8;}.cls-25{fill:#5ea5db;}.cls-26{fill:#69acdf;}.cls-27{fill:#81b6e3;}.cls-28{fill:url(#Gradient_bez_nazwy_8-9);}.cls-29{fill:url(#Gradient_bez_nazwy_8-10);}.cls-30{fill:url(#Gradient_bez_nazwy_8-11);}.cls-31{fill:url(#Gradient_bez_nazwy_8-12);}.cls-32{fill:url(#Gradient_bez_nazwy_8-13);}.cls-33{fill:url(#Gradient_bez_nazwy_8-14);}.cls-34{fill:url(#Gradient_bez_nazwy_8-15);}.cls-35{fill:url(#Gradient_bez_nazwy_8-16);}.cls-36{fill:url(#Gradient_bez_nazwy_8-17);}.cls-37{fill:url(#Gradient_bez_nazwy_8-18);}.cls-38{fill:url(#Gradient_bez_nazwy_8-19);}.cls-39{fill:url(#Gradient_bez_nazwy_8-20);}.cls-40{fill:url(#Gradient_bez_nazwy_8-21);}.cls-41{fill:url(#Gradient_bez_nazwy_8-22);}.cls-42{fill:url(#Gradient_bez_nazwy_8-23);}.cls-43{fill:url(#Gradient_bez_nazwy_8-24);}.cls-44{fill:url(#Gradient_bez_nazwy_7-2);}.cls-45{fill:url(#Gradient_bez_nazwy_7-3);}.cls-46{fill:url(#Gradient_bez_nazwy_13-3);}.cls-47{fill:#ffe7c0;}.cls-48{fill:url(#Gradient_bez_nazwy_13-4);}.cls-49{fill:url(#Gradient_bez_nazwy_13-5);}.cls-50{fill:url(#Gradient_bez_nazwy_13-6);}.cls-51{fill:url(#Gradient_bez_nazwy_13-7);}.cls-52{fill:url(#Gradient_bez_nazwy_13-8);}.cls-53{fill:url(#Gradient_bez_nazwy_14);}.cls-54{fill:url(#Gradient_bez_nazwy_13-9);}.cls-55{fill:#fdc957;}.cls-56{fill:#f3936a;}.cls-56,.cls-72,.cls-86{opacity:0.4;}.cls-57,.cls-68{opacity:0.6;}.cls-57{fill:url(#Gradient_bez_nazwy_7-4);}.cls-58{fill:#67a8dc;}.cls-59{fill:#3153a1;}.cls-60{fill:#f9f4e9;}.cls-61{fill:url(#Gradient_bez_nazwy_9-4);}.cls-62{fill:#33333d;}.cls-63{fill:url(#Gradient_bez_nazwy_9-5);}.cls-64{fill:url(#Gradient_bez_nazwy_9-6);}.cls-65{fill:#d3d3d3;}.cls-66{fill:#f2f2f2;}.cls-67{fill:url(#Gradient_bez_nazwy_11);}.cls-69,.cls-75{opacity:0.9;}.cls-69{fill:url(#Gradient_bez_nazwy_7-5);}.cls-70{fill:url(#Gradient_bez_nazwy_7-6);}.cls-71{fill:url(#Gradient_bez_nazwy_7-7);}.cls-72{fill:url(#Gradient_bez_nazwy_7-8);}.cls-73{fill:url(#Gradient_bez_nazwy_10);}.cls-74{fill:url(#Gradient_bez_nazwy_9-7);}.cls-76{fill:url(#Gradient_bez_nazwy_5);}.cls-77{fill:url(#Gradient_bez_nazwy_9-8);}.cls-78{fill:url(#Gradient_bez_nazwy_9-9);}.cls-79{fill:url(#Gradient_bez_nazwy_9-10);}.cls-80{fill:url(#Gradient_bez_nazwy_9-11);}.cls-81{fill:url(#Gradient_bez_nazwy_9-12);}.cls-82{fill:url(#Gradient_bez_nazwy_9-13);}.cls-83{fill:url(#Gradient_bez_nazwy_9-14);}.cls-84{fill:url(#Gradient_bez_nazwy_9-15);}.cls-85{fill:url(#Gradient_bez_nazwy_9-16);}.cls-87{fill:url(#Gradient_bez_nazwy_8-25);}.cls-88{fill:url(#Gradient_bez_nazwy_8-26);}.cls-89{fill:#2b285f;}.cls-90{fill:url(#Gradient_bez_nazwy_5-2);}.cls-91{fill:url(#Gradient_bez_nazwy_5-3);}.cls-92{fill:url(#Gradient_bez_nazwy_7-9);}.cls-93{fill:url(#Gradient_bez_nazwy_7-10);}.cls-94{fill:#f6ad86;}.cls-95{fill:url(#Gradient_bez_nazwy_7-11);}.cls-96{fill:url(#Gradient_bez_nazwy_5-4);}.cls-97{fill:url(#Gradient_bez_nazwy_5-5);}.cls-98{fill:url(#Gradient_bez_nazwy_5-6);}.cls-99{fill:url(#Gradient_bez_nazwy_5-7);}.cls-100{fill:url(#Gradient_bez_nazwy_7-12);}.cls-101{fill:url(#Gradient_bez_nazwy_5-8);}.cls-102{fill:url(#Gradient_bez_nazwy_3);}.cls-103{fill:url(#Gradient_bez_nazwy_4);}.cls-104{fill:url(#Gradient_bez_nazwy_3-2);}.cls-105{fill:#e0c0dd;}.cls-106{fill:url(#Gradient_bez_nazwy_2);}.cls-107{fill:url(#Gradient_bez_nazwy_2-2);}.cls-108{fill:url(#Gradient_bez_nazwy_2-3);}.cls-109{fill:url(#Gradient_bez_nazwy_3-3);}.cls-110{fill:url(#Gradient_bez_nazwy_2-4);}.cls-111{fill:url(#Gradient_bez_nazwy_3-4);}.cls-112{fill:url(#Gradient_bez_nazwy_2-5);}.cls-113{fill:url(#Gradient_bez_nazwy_3-5);}.cls-114{fill:url(#Gradient_bez_nazwy_2-6);}.cls-115{fill:url(#Gradient_bez_nazwy_3-6);}.cls-116{fill:#cfcece;}.cls-117{fill:url(#Gradient_bez_nazwy_2-7);}.cls-118{clip-path:url(#clip-path-3);}.cls-119{fill:url(#Gradient_bez_nazwy_2-8);}</style><clipPath id="clip-path"><rect class="cls-1" width="1920" height="1080"/></clipPath><linearGradient id="Gradient_bez_nazwy_9" x1="651.56839" y1="-204.52474" x2="834.8143" y2="-597.19444" gradientTransform="matrix(-0.4813, -0.8766, -0.8766, 0.4813, 2012.3922, 1200.7434)" gradientUnits="userSpaceOnUse"><stop offset="0" stop-color="#f7a414"/><stop offset="1" stop-color="#efdb2a"/></linearGradient><clipPath id="clip-path-2"><path class="cls-1" d="M2455.99947,1316.3748c227.02648-33.88768,236.55231-214.82863,164.45437-315.4584-102.135-142.56018-195.38725-119.34273-52.91994-354.15581,48.3671-79.722,66.96854-181.519,30.32708-269.54945-26.35424-63.31729-80.84291-115.22679-146.65944-134.50261-36.61565-10.72237-75.34229-11.49189-112.83144-18.58089-37.48527-7.08939-76.02245-22.26069-97.87592-53.53381-21.04664-30.11883-22.81214-69.75969-17.76151-106.15422,12.1423-87.53452,59.99676-167.68052,64.27444-256.57141,3.6052-74.92221-21.1768-160.94051-74.08608-215.44973-69.26189-71.34859-176.86383-86.69991-271.50256-92.19315-110.99554-6.4424-222.879,10.18917-328.41474,44.63059C1477.81-411.0227,1352.94815-338.22259,1241.82664-249.471c-98.924,79.01226-188.30929,171.90986-251.60792,281.55207C890.10919,205.487,832.16413,488.20439,1036.13109,612.2971c245.55562,149.39837,403.95577-109.61672,417.28318,145.23981,7.97232,152.50161,117.21345,390.964,415.11123,272.18266C2166.41952,910.9382,2129.04919,1365.1807,2455.99947,1316.3748Z"/></clipPath><linearGradient id="Gradient_bez_nazwy_9-2" x1="1561.35122" y1="522.12013" x2="1612.72896" y2="67.3307" gradientTransform="matrix(1, 0, 0, 1, 0, 0)" xlink:href="#Gradient_bez_nazwy_9"/><linearGradient id="Gradient_bez_nazwy_9-3" x1="1331.28551" y1="944.14056" x2="1715.66773" y2="215.33531" gradientTransform="matrix(1, 0, 0, 1, 0, 0)" xlink:href="#Gradient_bez_nazwy_9"/><linearGradient id="Gradient_bez_nazwy_8" x1="1723.1494" y1="491.65367" x2="1802.48513" y2="425.60382" gradientUnits="userSpaceOnUse"><stop offset="0" stop-color="#e6224b"/><stop offset="1" stop-color="#fab327"/></linearGradient><linearGradient id="Gradient_bez_nazwy_8-2" x1="1710.94857" y1="565.51828" x2="1677.54427" y2="366.61019" xlink:href="#Gradient_bez_nazwy_8"/><linearGradient id="Gradient_bez_nazwy_8-3" x1="1756.65215" y1="436.25203" x2="1716.54939" y2="498.30294" xlink:href="#Gradient_bez_nazwy_8"/><linearGradient id="Gradient_bez_nazwy_7" x1="1710.7351" y1="623.56399" x2="1710.7351" y2="465.95818" gradientUnits="userSpaceOnUse"><stop offset="0" stop-color="#36277c"/><stop offset="1" stop-color="#47a9e0"/></linearGradient><linearGradient id="Gradient_bez_nazwy_8-4" x1="1714.55246" y1="409.04138" x2="1674.4484" y2="471.0943" xlink:href="#Gradient_bez_nazwy_8"/><linearGradient id="Gradient_bez_nazwy_8-5" x1="1696.0984" y1="397.11416" x2="1655.99278" y2="459.16951" xlink:href="#Gradient_bez_nazwy_8"/><linearGradient id="Gradient_bez_nazwy_8-6" x1="1700.0706" y1="550.39671" x2="1768.08368" y2="388.08637" xlink:href="#Gradient_bez_nazwy_8"/><linearGradient id="Gradient_bez_nazwy_8-7" x1="1718.40708" y1="558.08257" x2="1786.4218" y2="395.76832" xlink:href="#Gradient_bez_nazwy_8"/><linearGradient id="Gradient_bez_nazwy_8-8" x1="1724.68772" y1="415.59065" x2="1684.58292" y2="477.64471" xlink:href="#Gradient_bez_nazwy_8"/><linearGradient id="Gradient_bez_nazwy_13" x1="1058.15472" y1="597.34539" x2="1350.24802" y2="320.47488" gradientUnits="userSpaceOnUse"><stop offset="0" stop-color="#ee721a"/><stop offset="1" stop-color="#efdb2a"/></linearGradient><linearGradient id="Gradient_bez_nazwy_15" x1="1241.58404" y1="414.23388" x2="1241.58404" y2="852.85271" gradientTransform="translate(2483.16808 861.68969) rotate(-180)" gradientUnits="userSpaceOnUse"><stop offset="0" stop-color="#8ed1e3"/><stop offset="1" stop-color="#f4971f"/></linearGradient><linearGradient id="Gradient_bez_nazwy_13-2" x1="1664.92025" y1="430.84389" x2="1049.62455" y2="430.84389" xlink:href="#Gradient_bez_nazwy_13"/><linearGradient id="Gradient_bez_nazwy_8-9" x1="1046.85054" y1="773.63271" x2="1091.16295" y2="726.14705" gradientTransform="matrix(-1, -0.008, -0.008, 1, 2130.2647, -0.5055)" xlink:href="#Gradient_bez_nazwy_8"/><linearGradient id="Gradient_bez_nazwy_8-10" x1="956.97617" y1="757.76167" x2="1001.2898" y2="710.2747" gradientTransform="matrix(-0.9276, -0.3736, -0.3736, 0.9276, 2264.5639, 419.9642)" xlink:href="#Gradient_bez_nazwy_8"/><linearGradient id="Gradient_bez_nazwy_8-11" x1="874.43986" y1="697.00468" x2="914.54967" y2="654.02256" gradientTransform="matrix(-0.6616, -0.7498, -0.7498, 0.6616, 2205.8404, 960.3439)" xlink:href="#Gradient_bez_nazwy_8"/><linearGradient id="Gradient_bez_nazwy_8-12" x1="836.1154" y1="607.43212" x2="872.1477" y2="568.81951" gradientTransform="matrix(-0.2661, -0.964, -0.964, 0.2661, 1919.5696, 1406.1387)" xlink:href="#Gradient_bez_nazwy_8"/><linearGradient id="Gradient_bez_nazwy_8-13" x1="1181.35221" y1="787.42384" x2="1073.84004" y2="622.82532" xlink:href="#Gradient_bez_nazwy_8"/><linearGradient id="Gradient_bez_nazwy_8-14" x1="885.90768" y1="800.60967" x2="1017.9649" y2="591.74243" gradientTransform="matrix(-1, 0, 0, 1, 2041.2129, 0)" xlink:href="#Gradient_bez_nazwy_8"/><linearGradient id="Gradient_bez_nazwy_8-15" x1="1019.79816" y1="664.01431" x2="1140.81644" y2="534.32979" gradientTransform="translate(-13.8334 211.3296) rotate(-11.52007)" xlink:href="#Gradient_bez_nazwy_8"/><linearGradient id="Gradient_bez_nazwy_8-16" x1="978.94162" y1="803.96464" x2="836.39822" y2="578.512" gradientTransform="matrix(-1, 0, 0, 1, 2041.2129, 0)" xlink:href="#Gradient_bez_nazwy_8"/><linearGradient id="Gradient_bez_nazwy_8-17" x1="948.31046" y1="612.27655" x2="1170.84084" y2="373.81055" gradientTransform="matrix(-0.9617, -0.2739, -0.2739, 0.9617, 2148.5747, 285.9476)" xlink:href="#Gradient_bez_nazwy_8"/><linearGradient id="Gradient_bez_nazwy_8-18" x1="897.49632" y1="801.9596" x2="1094.48801" y2="442.802" gradientTransform="matrix(-1, 0, 0, 1, 2041.2129, 0)" xlink:href="#Gradient_bez_nazwy_8"/><linearGradient id="Gradient_bez_nazwy_8-19" x1="1014.11611" y1="678.32765" x2="1174.66931" y2="506.27707" gradientTransform="matrix(-0.9987, 0.0516, 0.0516, 0.9987, 2012.4009, -46.1246)" xlink:href="#Gradient_bez_nazwy_8"/><linearGradient id="Gradient_bez_nazwy_8-20" x1="917.76302" y1="794.33509" x2="1133.20974" y2="597.59141" gradientTransform="matrix(-1, 0, 0, 1, 2041.2129, 0)" xlink:href="#Gradient_bez_nazwy_8"/><linearGradient id="Gradient_bez_nazwy_8-21" x1="1030.99656" y1="564.42162" x2="1055.08183" y2="520.50906" gradientTransform="matrix(-1, 0, 0, 1, 2041.2129, 0)" xlink:href="#Gradient_bez_nazwy_8"/><linearGradient id="Gradient_bez_nazwy_8-22" x1="1039.84811" y1="519.50793" x2="1055.06154" y2="479.71665" gradientTransform="matrix(-1, 0, 0, 1, 2041.2129, 0)" xlink:href="#Gradient_bez_nazwy_8"/><linearGradient id="Gradient_bez_nazwy_8-23" x1="961.0923" y1="539.78873" x2="961.20527" y2="502.11212" gradientTransform="matrix(-1, 0, 0, 1, 2041.2129, 0)" xlink:href="#Gradient_bez_nazwy_8"/><linearGradient id="Gradient_bez_nazwy_8-24" x1="986.6393" y1="495.26408" x2="993.03726" y2="466.59143" gradientTransform="matrix(-1, 0, 0, 1, 2041.2129, 0)" xlink:href="#Gradient_bez_nazwy_8"/><linearGradient id="Gradient_bez_nazwy_7-2" x1="952.26558" y1="758.91627" x2="952.26558" y2="826.58615" gradientTransform="matrix(-1, 0, 0, 1, 2041.2129, 0)" xlink:href="#Gradient_bez_nazwy_7"/><linearGradient id="Gradient_bez_nazwy_7-3" x1="952.26631" y1="776.18146" x2="952.26631" y2="746.70866" gradientTransform="matrix(-1, 0, 0, 1, 2041.2129, 0)" xlink:href="#Gradient_bez_nazwy_7"/><linearGradient id="Gradient_bez_nazwy_13-3" x1="669.94379" y1="627.04395" x2="669.94379" y2="407.54554" gradientTransform="matrix(-1, 0, 0, 1, 2125.2109, 0)" xlink:href="#Gradient_bez_nazwy_13"/><linearGradient id="Gradient_bez_nazwy_13-4" x1="496.69582" y1="628.08569" x2="496.69582" y2="397.06939" gradientTransform="matrix(-1, 0, 0, 1, 2125.2109, 0)" xlink:href="#Gradient_bez_nazwy_13"/><linearGradient id="Gradient_bez_nazwy_13-5" x1="848.84446" y1="628.08823" x2="848.84446" y2="397.07423" gradientTransform="matrix(-1, 0, 0, 1, 2125.2109, 0)" xlink:href="#Gradient_bez_nazwy_13"/><linearGradient id="Gradient_bez_nazwy_13-6" x1="999.8561" y1="628.08569" x2="999.8561" y2="397.06939" gradientTransform="matrix(-1, 0, 0, 1, 2125.2109, 0)" xlink:href="#Gradient_bez_nazwy_13"/><linearGradient id="Gradient_bez_nazwy_13-7" x1="345.66192" y1="627.03954" x2="345.66192" y2="407.58969" gradientTransform="matrix(-1, 0, 0, 1, 2125.2109, 0)" xlink:href="#Gradient_bez_nazwy_13"/><linearGradient id="Gradient_bez_nazwy_13-8" x1="491.05052" y1="627.03954" x2="491.05052" y2="407.58969" gradientTransform="matrix(-1, 0, 0, 1, 2125.2109, 0)" xlink:href="#Gradient_bez_nazwy_13"/><linearGradient id="Gradient_bez_nazwy_14" x1="848.83324" y1="578.83668" x2="848.83324" y2="532.13215" gradientTransform="matrix(-1, 0, 0, 1, 2125.2109, 0)" gradientUnits="userSpaceOnUse"><stop offset="0" stop-color="#e8491d"/><stop offset="1" stop-color="#efdb2a"/></linearGradient><linearGradient id="Gradient_bez_nazwy_13-9" x1="994.22186" y1="627.03954" x2="994.22186" y2="407.58969" gradientTransform="matrix(-1, 0, 0, 1, 2125.2109, 0)" xlink:href="#Gradient_bez_nazwy_13"/><linearGradient id="Gradient_bez_nazwy_7-4" x1="1465.30735" y1="625.25633" x2="1646.08124" y2="342.67828" xlink:href="#Gradient_bez_nazwy_7"/><linearGradient id="Gradient_bez_nazwy_9-4" x1="1470.94172" y1="450.08451" x2="1492.10407" y2="450.08451" gradientTransform="matrix(1, 0, 0, 1, 0, 0)" xlink:href="#Gradient_bez_nazwy_9"/><linearGradient id="Gradient_bez_nazwy_9-5" x1="1578.82262" y1="453.84004" x2="1675.2082" y2="453.84004" gradientTransform="matrix(1, 0, 0, 1, 0, 0)" xlink:href="#Gradient_bez_nazwy_9"/><linearGradient id="Gradient_bez_nazwy_9-6" x1="1633.73493" y1="427.92087" x2="1649.71985" y2="427.92087" gradientTransform="matrix(1, 0, 0, 1, 0, 0)" xlink:href="#Gradient_bez_nazwy_9"/><linearGradient id="Gradient_bez_nazwy_11" x1="1565.99493" y1="699.44507" x2="1565.99493" y2="374.81934" gradientUnits="userSpaceOnUse"><stop offset="0" stop-color="#f7a414"/><stop offset="1" stop-color="#efdb2a" stop-opacity="0"/></linearGradient><linearGradient id="Gradient_bez_nazwy_7-5" x1="1556.51096" y1="735.39605" x2="1571.34333" y2="712.21072" gradientTransform="translate(-68.8886 804.807) rotate(-38.52827)" xlink:href="#Gradient_bez_nazwy_7"/><linearGradient id="Gradient_bez_nazwy_7-6" x1="1556.48974" y1="749.62485" x2="1563.83091" y2="724.42011" gradientTransform="translate(-68.8886 804.807) rotate(-38.52827)" xlink:href="#Gradient_bez_nazwy_7"/><linearGradient id="Gradient_bez_nazwy_7-7" x1="1484.42091" y1="612.61643" x2="1520.19471" y2="556.69635" xlink:href="#Gradient_bez_nazwy_7"/><linearGradient id="Gradient_bez_nazwy_7-8" x1="1502.39314" y1="571.45949" x2="1502.39314" y2="559.77761" xlink:href="#Gradient_bez_nazwy_7"/><linearGradient id="Gradient_bez_nazwy_10" x1="1503.44674" y1="408.89853" x2="1621.57644" y2="280.29566" gradientUnits="userSpaceOnUse"><stop offset="0" stop-color="#24a48b"/><stop offset="0.53572" stop-color="#56b576"/><stop offset="1" stop-color="#138d68"/></linearGradient><linearGradient id="Gradient_bez_nazwy_9-7" x1="1521.84641" y1="420.09077" x2="1573.48452" y2="343.60787" gradientTransform="matrix(1, 0, 0, 1, 0, 0)" xlink:href="#Gradient_bez_nazwy_9"/><linearGradient id="Gradient_bez_nazwy_5" x1="1540.80849" y1="360.63678" x2="1553.79861" y2="335.95552" gradientUnits="userSpaceOnUse"><stop offset="0" stop-color="#ec6654"/><stop offset="1" stop-color="#9e1460"/></linearGradient><linearGradient id="Gradient_bez_nazwy_9-8" x1="1244.427" y1="269.66874" x2="1247.75705" y2="242.55279" gradientTransform="matrix(1, 0, 0, 1, 0, 0)" xlink:href="#Gradient_bez_nazwy_9"/><linearGradient id="Gradient_bez_nazwy_9-9" x1="1051.60195" y1="358.84495" x2="1060.35368" y2="287.58112" gradientTransform="matrix(1, 0, 0, 1, 0, 0)" xlink:href="#Gradient_bez_nazwy_9"/><linearGradient id="Gradient_bez_nazwy_9-10" x1="1421.90024" y1="358.84495" x2="1430.65198" y2="287.58112" gradientTransform="matrix(1, 0, 0, 1, 0, 0)" xlink:href="#Gradient_bez_nazwy_9"/><linearGradient id="Gradient_bez_nazwy_9-11" x1="1244.427" y1="281.08604" x2="1247.75705" y2="253.97008" gradientTransform="matrix(1, 0, 0, 1, 0, 0)" xlink:href="#Gradient_bez_nazwy_9"/><linearGradient id="Gradient_bez_nazwy_9-12" x1="1244.427" y1="292.50333" x2="1247.75705" y2="265.38738" gradientTransform="matrix(1, 0, 0, 1, 0, 0)" xlink:href="#Gradient_bez_nazwy_9"/><linearGradient id="Gradient_bez_nazwy_9-13" x1="1244.427" y1="303.92063" x2="1247.75705" y2="276.80468" gradientTransform="matrix(1, 0, 0, 1, 0, 0)" xlink:href="#Gradient_bez_nazwy_9"/><linearGradient id="Gradient_bez_nazwy_9-14" x1="1244.427" y1="315.33793" x2="1247.75705" y2="288.22197" gradientTransform="matrix(1, 0, 0, 1, 0, 0)" xlink:href="#Gradient_bez_nazwy_9"/><linearGradient id="Gradient_bez_nazwy_9-15" x1="1244.427" y1="326.75522" x2="1247.75705" y2="299.63927" gradientTransform="matrix(1, 0, 0, 1, 0, 0)" xlink:href="#Gradient_bez_nazwy_9"/><linearGradient id="Gradient_bez_nazwy_9-16" x1="1244.427" y1="338.17252" x2="1247.75705" y2="311.05657" gradientTransform="matrix(1, 0, 0, 1, 0, 0)" xlink:href="#Gradient_bez_nazwy_9"/><linearGradient id="Gradient_bez_nazwy_8-25" x1="1816.43772" y1="249.64245" x2="1816.43772" y2="310.10877" xlink:href="#Gradient_bez_nazwy_8"/><linearGradient id="Gradient_bez_nazwy_8-26" x1="1816.43769" y1="258.13738" x2="1816.43769" y2="-72.68641" xlink:href="#Gradient_bez_nazwy_8"/><linearGradient id="Gradient_bez_nazwy_5-2" x1="1396.17009" y1="656.87407" x2="1404.25745" y2="840.50172" xlink:href="#Gradient_bez_nazwy_5"/><linearGradient id="Gradient_bez_nazwy_5-3" x1="1350.18368" y1="624.32798" x2="1359.69774" y2="748.48687" xlink:href="#Gradient_bez_nazwy_5"/><linearGradient id="Gradient_bez_nazwy_7-9" x1="1261.06506" y1="598.89162" x2="1289.97925" y2="462.35257" gradientTransform="translate(-85.0666 157.7978) rotate(-9.0036)" xlink:href="#Gradient_bez_nazwy_7"/><linearGradient id="Gradient_bez_nazwy_7-10" x1="1185.76853" y1="428.31207" x2="1245.69689" y2="145.31742" gradientTransform="matrix(0.7868, 0.6172, -0.6172, 0.7868, 546.7693, -511.7122)" xlink:href="#Gradient_bez_nazwy_7"/><linearGradient id="Gradient_bez_nazwy_7-11" x1="665.22863" y1="581.91721" x2="722.3151" y2="312.34259" gradientTransform="matrix(-1, 0, 0, 1, 1981.3008, 0)" xlink:href="#Gradient_bez_nazwy_7"/><linearGradient id="Gradient_bez_nazwy_5-4" x1="1336.76709" y1="774.68474" x2="1357.69881" y2="886.95501" xlink:href="#Gradient_bez_nazwy_5"/><linearGradient id="Gradient_bez_nazwy_5-5" x1="1443.28721" y1="754.82443" x2="1464.21903" y2="867.09519" xlink:href="#Gradient_bez_nazwy_5"/><linearGradient id="Gradient_bez_nazwy_5-6" x1="1420.08981" y1="759.14962" x2="1441.02147" y2="871.41957" xlink:href="#Gradient_bez_nazwy_5"/><linearGradient id="Gradient_bez_nazwy_5-7" x1="666.19982" y1="404.00748" x2="627.50738" y2="516.27919" gradientTransform="matrix(-1, 0, 0, 1, 1981.3008, 0)" xlink:href="#Gradient_bez_nazwy_5"/><linearGradient id="Gradient_bez_nazwy_7-12" x1="1326.57848" y1="703.75293" x2="1445.18653" y2="611.14983" gradientTransform="translate(-126.5977 505.5588) rotate(-25.72716)" xlink:href="#Gradient_bez_nazwy_7"/><linearGradient id="Gradient_bez_nazwy_5-8" x1="683.1564" y1="409.85176" x2="644.46483" y2="522.12094" gradientTransform="matrix(-1, 0, 0, 1, 1981.3008, 0)" xlink:href="#Gradient_bez_nazwy_5"/><linearGradient id="Gradient_bez_nazwy_3" x1="1447.53538" y1="778.49534" x2="1021.88627" y2="1029.87169" gradientUnits="userSpaceOnUse"><stop offset="0" stop-color="#dc69a5"/><stop offset="1" stop-color="#9e1460"/></linearGradient><linearGradient id="Gradient_bez_nazwy_4" x1="1331.23254" y1="347.10961" x2="1331.23254" y2="625.94397" gradientUnits="userSpaceOnUse"><stop offset="0" stop-color="#2a4b9b"/><stop offset="0.8655" stop-color="#862074"/><stop offset="1" stop-color="#9e1460"/></linearGradient><linearGradient id="Gradient_bez_nazwy_3-2" x1="1399.71674" y1="708.27775" x2="958.61056" y2="968.78261" xlink:href="#Gradient_bez_nazwy_3"/><linearGradient id="Gradient_bez_nazwy_2" x1="1331.23226" y1="268.53297" x2="1331.23226" y2="547.38593" gradientUnits="userSpaceOnUse"><stop offset="0" stop-color="#2a4b9b"/><stop offset="1" stop-color="#9e1460"/></linearGradient><linearGradient id="Gradient_bez_nazwy_2-2" x1="1331.23226" y1="268.51764" x2="1331.23226" y2="547.37721" xlink:href="#Gradient_bez_nazwy_2"/><linearGradient id="Gradient_bez_nazwy_2-3" x1="1300.11158" y1="268.5526" x2="1300.11158" y2="547.39429" xlink:href="#Gradient_bez_nazwy_2"/><linearGradient id="Gradient_bez_nazwy_3-3" x1="1443.63089" y1="771.89095" x2="1017.99329" y2="1023.2605" xlink:href="#Gradient_bez_nazwy_3"/><linearGradient id="Gradient_bez_nazwy_2-4" x1="1367.61195" y1="268.5526" x2="1367.61195" y2="547.39429" xlink:href="#Gradient_bez_nazwy_2"/><linearGradient id="Gradient_bez_nazwy_3-4" x1="1461.08741" y1="801.44536" x2="1035.44448" y2="1052.81806" xlink:href="#Gradient_bez_nazwy_3"/><linearGradient id="Gradient_bez_nazwy_2-5" x1="1258.54558" y1="268.5526" x2="1258.54558" y2="547.39429" xlink:href="#Gradient_bez_nazwy_2"/><linearGradient id="Gradient_bez_nazwy_3-5" x1="1432.86935" y1="753.69782" x2="1007.25963" y2="1005.05091" xlink:href="#Gradient_bez_nazwy_3"/><linearGradient id="Gradient_bez_nazwy_2-6" x1="1409.18159" y1="268.5526" x2="1409.18159" y2="547.39429" xlink:href="#Gradient_bez_nazwy_2"/><linearGradient id="Gradient_bez_nazwy_3-6" x1="1471.83472" y1="819.64675" x2="1046.19656" y2="1071.01664" xlink:href="#Gradient_bez_nazwy_3"/><linearGradient id="Gradient_bez_nazwy_2-7" x1="1331.23226" y1="283.36624" x2="1331.23226" y2="562.19907" xlink:href="#Gradient_bez_nazwy_2"/><clipPath id="clip-path-3"><path class="cls-1" d="M1478.36373,505.126l-.00381.0019c-16.82828,4.76292-52.88682,16.06871-65.69779,22.51682-8.97894-4.92276-28.37579-24.93995-59.92939-43.89837a28.83182,28.83182,0,0,0-13.3129-4.30737,86.82042,86.82042,0,0,0-23.72291-4.59013c-.02207-1.05914-.03691-2.10154-.04453-3.10512-.0038-.66145-.09666-1.30614-.16364-1.95465,8.9386-.44413,14.844-11.2799,16.89189-18.7727a80.13144,80.13144,0,0,0,1.89184-9.53458c2.58678-1.21747,5.2923-4.35418,7.01327-8.56868,2.55291-6.25516,1.96948-12.40794-1.30462-13.74567-1.42335-.58152-3.11844-.11341-4.7907,1.063-.16364-3.722-.45707-7.62827-1.00353-11.80777a17.767,17.767,0,0,0-1.22626-4.37054c.2116-.06508.4681-.12064.66524-.18953,11.101-3.87274,10.3319-25.34525-5.55261-26.81694-8.94579-.01675-2.468,2.1259-9.71536,5.06928-3.37076,1.36779-37.90124,2.67964-37.79353,11.54555-8.39971,3.61814-9.8714,13.13065-9.15782,25.75209-2.91369,1.66883-3.37076,7.51487-.92518,13.50058a20.26892,20.26892,0,0,0,3.87237,6.18437,43.05178,43.05178,0,0,0,3.7875,9.38616c1.26351,5.21428,3.2779,8.351,7.51486,12.41136a13.0301,13.0301,0,0,0-.55754,2.8136c-.28239,3.65163-.55374,7.62447-.773,11.60492a60.56814,60.56814,0,0,0-11.35792,2.14265c-11.34309,3.477-18.7316,9.51822-23.09491,17.18a286.37151,286.37151,0,0,0-17.77635,23.6947c-19.20732,28.02489-25.49559,42.86129-27.58039,50.64941-2.96963,6.70842-2.76527,13.703,2.04028,16.052C1208.55587,606.7,1214.34254,668.00475,1217.877,690.2c4.90943,30.84383,27.00457,49.25955,59.10468,49.25955h35.523V753.244a5.342,5.342,0,0,0,5.34064,5.34444h.82128v60.95543a5.24663,5.24663,0,0,0-4.33363,5.16252v10.03847h-52.09141A14.25623,14.25623,0,0,0,1248.0034,848.983a7.86165,7.86165,0,0,0,.13738,1.364,13.435,13.435,0,1,0,15.95153.21921H1289.302a13.48973,13.48973,0,1,0,16.36023,0h51.14a12.36279,12.36279,0,1,0,20.85369,13.00811,35.81507,35.81507,0,0,1,4.04743.20437,54.76641,54.76641,0,0,0,12.28691.15984,10.81849,10.81849,0,0,0,.83613,1.5421,3.04481,3.04481,0,0,0,2.92511,3.08876,18.96138,18.96138,0,0,0,17.72421-.10428c1.99955.05214,3.98045.14881,5.97239.36041,5.78324.60968,17.21158,1.95121,26.78536-1.65018,9.57036-3.60482-8.01646-4.41888-16.44585-7.57043-7.07644-2.64615-12.55446-6.65286-14.95171-9.22442a2.33925,2.33925,0,0,0,.11912-.20437c21.74919-61.77328,55.57749-118.66644,71.60319-151.69934a31.19254,31.19254,0,0,0,5.757-18.37081c.12255-5.87991-1.925-10.41791-5.27022-13.38336-4.99507-5.32617-13.94052-8.83432-28.63605-8.20637-4.61607.19714-11.70354.33072-20.09906.42358a14.85013,14.85013,0,0,0-3.92831-4.39642c-5.41523-4.89878-14.61376-7.66748-29.20849-5.83881-6.71984.83994-18.70192,1.97329-32.39387,3.18505-.10014-.88827-.15985-1.3716-.15985-1.3716s-.45711-57.79626-5.00234-109.52347c22.69721,12.92248,34.26293,16.31037,40.06824,17.137a3.9108,3.9108,0,0,0,.84755-.04262c.0891-.00381.18191-.00723.27477-.01484a4.23688,4.23688,0,0,0,.70635-.14691,8.01749,8.01749,0,0,0,1.32674-.27287c12.94488-4.4379,29.31272-10.9549,53.7229-25.32661,14.79187-8.70607,19.79455-10.38593,23.04277-13.86478a33.52531,33.52531,0,0,0,13.07128-5.67326c4.82419-3.29846,18.1889-14.83107,18.70534-25.53478C1521.84765,477.56956,1482.90553,502.28268,1478.36373,505.126Zm-225.84094,48.03485c.67624,2.35425,1.33425,4.67348,1.95878,6.93677-2.22637-.51454-4.4341-1.01461-6.59691-1.48843C1249.3415,556.89047,1250.90225,555.0599,1252.52279,553.16082ZM1435.0545,717.26011h-9.4364c.44223-1.0443.88484-2.081,1.31946-3.10322q4.85007-.58514,9.70013-1.22621Q1435.83506,715.07142,1435.0545,717.26011Zm-91.25656,102.28377V758.58845h.82129a5.342,5.342,0,0,0,5.34063-5.34444V739.45953h29.72531c-6.75675,32.87649-11.9638,68.50378-18.63493,95.28534h-12.91867V824.7064A5.24967,5.24967,0,0,0,1343.79794,819.54388Zm44.32766,34.25569a20.50594,20.50594,0,0,1-5.969-3.23338h13.56189a2.29206,2.29206,0,0,0,.73561,1.44962,10.763,10.763,0,0,0-2.40449,3.445A47.62066,47.62066,0,0,1,1388.1256,853.79957Zm12.87414-18.97669c-.26412-.01141-.513-.078-.77675-.078h-18.34494c9.65181-34.34476,22.60777-67.27377,34.33372-95.28534h11.55088C1418.04387,771.45917,1409.8265,807.28665,1400.99974,834.82288Z"/></clipPath><linearGradient id="Gradient_bez_nazwy_2-8" x1="772.5629" y1="-37.65938" x2="1459.28531" y2="384.24857" gradientTransform="matrix(-0.7113, -0.6419, 0.3047, -0.6487, 1929.3465, 1553.4244)" xlink:href="#Gradient_bez_nazwy_2"/></defs><title>painel</title><g class="cls-2"><g id="Camada_1" data-name="Camada 1"><g class="cls-3"><path class="cls-4" d="M2455.99947,1316.3748c227.02648-33.88768,236.55231-214.82863,164.45437-315.4584-102.135-142.56018-195.38725-119.34273-52.91994-354.15581,48.3671-79.722,66.96854-181.519,30.32708-269.54945-26.35424-63.31729-80.84291-115.22679-146.65944-134.50261-36.61565-10.72237-75.34229-11.49189-112.83144-18.58089-37.48527-7.08939-76.02245-22.26069-97.87592-53.53381-21.04664-30.11883-22.81214-69.75969-17.76151-106.15422,12.1423-87.53452,59.99676-167.68052,64.27444-256.57141,3.6052-74.92221-21.1768-160.94051-74.08608-215.44973-69.26189-71.34859-176.86383-86.69991-271.50256-92.19315-110.99554-6.4424-222.879,10.18917-328.41474,44.63059C1477.81-411.0227,1352.94815-338.22259,1241.82664-249.471c-98.924,79.01226-188.30929,171.90986-251.60792,281.55207C890.10919,205.487,832.16413,488.20439,1036.13109,612.2971c245.55562,149.39837,403.95577-109.61672,417.28318,145.23981,7.97232,152.50161,117.21345,390.964,415.11123,272.18266C2166.41952,910.9382,2129.04919,1365.1807,2455.99947,1316.3748Z"/><g class="cls-5"><path class="cls-6" d="M936.068,333.19746c4.57339-153.61137,124.11138-174.255,196.71432-134.28493,102.85614,56.62561,94.79477,120.45554,239.63308,7.16931,49.17392-38.46107,115.37711-58.87634,176.80108-41.481,44.1788,12.51184,82.99837,44.6325,101.01981,86.86394,10.02363,23.49414,13.59915,49.17925,21.27385,73.54148,7.67851,24.36032,20.81259,48.78,43.33511,60.8363,21.686,11.60873,48.178,9.64648,71.975,3.41187,57.23529-14.99624,106.73231-53.15056,165.48769-63.02538,49.527-8.32321,108.67243,1.34724,149.09385,32.21314,52.9127,40.40125,71.62946,110.72419,82.76779,173.20725,13.06025,73.28116,10.85252,148.9767-3.69768,221.86207-18.63874,93.36761-57.16108,182.13786-107.37549,263.03283-44.70291,72.01232-99.39214,138.78791-167.279,189.54122-107.36407,80.27045-290.73233,141.15167-389.36636,15.36806-118.74446-151.43142,40.92682-277.22644-129.55968-265.92788-102.01579,6.76056-269.19094-47.00349-213.78432-254.44018C1228.51369,493.64359,929.4806,554.41711,936.068,333.19746Z"/><path class="cls-7" d="M953.14409,355.67735c52.97588-135.02476,165.75708-115.3029,217.536-56.672,73.35385,83.06159,45.87014,137.20813,210.62934,82.673,55.9341-18.51582,121.26045-15.57244,170.29279,19.43947,35.26651,25.18541,59.53207,66.08255,62.093,109.34345,1.42717,24.06652-3.57551,48.02534-4.50831,72.11432-.9366,24.09087,2.95823,49.96932,19.1255,67.84957,15.57248,17.22261,39.73752,23.91239,62.86592,25.953,55.62589,4.8984,111.75332-13.23874,167.10057-3.30417,46.65406,8.37345,96.12521,35.7978,122.21183,76.09286,34.14762,52.74563,28.38721,121.18624,18.38566,180.2464-11.72937,69.26912-37.79354,135.82169-73.92624,195.9448-46.29333,77.02223-108.784,143.62693-179.15718,199.5127-62.65013,49.74631-132.50306,91.66187-208.97878,115.13926-120.95175,37.13247-303.26091,32.83957-350.84022-110.32611-57.28362-172.35209,124.635-233.27784-30.43889-277.52367-92.79142-26.47671-224.20371-127.47831-108.9252-294.14421C1161.89072,591.354,876.85219,550.13181,953.14409,355.67735Z"/></g><ellipse class="cls-8" cx="1453.50277" cy="870.52782" rx="355.29738" ry="8.22464"/><path class="cls-8" d="M1036.906,833.03493c0,2.36377,23.91619,4.28149,53.41849,4.28149,29.50191,0,53.41814-1.91772,53.41814-4.28149,0-2.36718-23.91623-4.28491-53.41814-4.28491C1060.82214,828.75,1036.906,830.66775,1036.906,833.03493Z"/><path class="cls-9" d="M1739.43393,427.02975c10.77069-3.36734,15.07463,4.43562,14.04137,10.43427-1.46446,8.4979-6.0877,9.46989,5.24777,16.80626,8.36969,5.41332,10.34331,16.63348.90691,22.26221-13.19,7.868.86962,13.94661,3.93935,20.68472,6.34079,13.91464-4.04363,17.31928-20.84228,24.2393-17.24506,7.10422-30.14889,3.64783-42.1831-7.32153-8.88266-8.10019-14.18257-17.23936-8.84536-25.50853,7.66329-11.87475,20.22536-3.80957,15.34941-15.37377-2.914-6.9185-3.19266-19.81281,12.53581-20.94275S1723.92124,431.87982,1739.43393,427.02975Z"/><path class="cls-10" d="M1675.43851,404.84747c-13.5581-2.83035-17.88411,7.21192-15.907,14.41662,2.79876,10.20744,8.563,10.843-4.41506,21.15473-9.57417,7.60963-10.652,21.55243,1.5459,27.3037,17.04793,8.04083.59826,17.14079-2.34892,25.73535-6.0877,17.7539,7.00223,20.67711,28.34648,27.129,21.909,6.6247,37.26226.8662,50.6567-13.96678,9.88961-10.95261,15.27134-22.74554,7.76757-32.21352-10.77412-13.59305-25.16111-2.24464-20.5824-16.95126,2.73939-8.79893,1.54248-24.583-17.80223-24.0905C1683.351,433.8573,1694.96888,408.92458,1675.43851,404.84747Z"/><path class="cls-11" d="M1699.03877,499.25025c-14.04861,20.50242-18.5828,34.49165-.82129,36.24,17.75771,1.74875,40.64792-43.92044,27.46888-52.69729C1716.38773,476.60137,1705.73958,489.47362,1699.03877,499.25025Z"/><path class="cls-12" d="M1690.606,584.5268h40.25777a10.25532,10.25532,0,0,0,10.12029-8.60027l8.8564-54.193a2.042,2.042,0,0,0-2.01439-2.37137h-74.18275a2.04415,2.04415,0,0,0-2.01433,2.37137l8.85672,54.193A10.25507,10.25507,0,0,0,1690.606,584.5268Z"/><path class="cls-13" d="M1676.54979,462.67532c12.53576,3.80767,22.97193,9.0482,14.8588,12.733-8.11694,3.68512-36.29978-8.03321-32.36766-13.06558C1661.81343,458.79153,1670.56974,460.85806,1676.54979,462.67532Z"/><path class="cls-14" d="M1675.73568,422.62572c2.87684,7.90686,5.83158,11.90976,9.812,7.368,3.98045-4.54332-4.07706-19.841-9.09083-17.94342C1672.92246,413.38989,1674.36827,418.85687,1675.73568,422.62572Z"/><path class="cls-15" d="M1741.81633,438.19245c-3.08457,7.82541-3.52337,12.78318,2.468,12.01746,5.991-.76534,10.09023-17.56247,5.07651-19.46154C1745.82647,429.41026,1743.288,434.46089,1741.81633,438.19245Z"/><path class="cls-16" d="M1756.3928,475.43986c5.46323-4.85007,7.74511-8.51845,2.806-10.27824-4.94287-1.75788-14.71,9.64648-11.57333,13.08232C1749.84041,480.67088,1753.78737,477.75338,1756.3928,475.43986Z"/><path class="cls-17" d="M1695.52643,460.35076c-4.94674-1.66693-8.03126-1.78225-7.36987,1.90478.66144,3.68665,11.19809,5.701,12.21651,2.53845C1701.09388,462.56191,1697.883,461.14616,1695.52643,460.35076Z"/><path class="cls-18" d="M967.92454,590.09045H1499.697V271.59733H967.92454Zm523.44349-8.32892H976.25346V279.92625H1491.368Z"/><rect class="cls-19" x="979.8625" y="275.7616" width="523.44307" height="310.16648" transform="translate(2483.16808 861.68969) rotate(180)"/><g class="cls-20"><path class="cls-21" d="M1319.38015,347.146a5.04466,5.04466,0,0,1-1.375-4.07522c.5016-2.2709,3.48227-3.633,7.9461-4.02688a5.38877,5.38877,0,0,1-.77338-3.79853c1.31946-6.03937,16.342-7.1263,33.54973-2.43074a83.15439,83.15439,0,0,1,16.3157,6.24754,3.75162,3.75162,0,0,1,.02968-2.18527c1.55352-4.49118,13.21248-3.644,26.02692,1.89756a70.53417,70.53417,0,0,1,8.65959,4.4615c.98494-1.78,6.03975-1.67416,11.66277.30674a26.47491,26.47491,0,0,1,7.27706,3.77608l44.76983,2.76679H1274.7663Z"/><path class="cls-21" d="M1161.28865,473.58911a3.44121,3.44121,0,0,1-.94041-2.79115c.34176-1.55351,2.38241-2.48821,5.44114-2.75575a3.68526,3.68526,0,0,1-.5317-2.60162c.90311-4.13459,11.19085-4.87976,22.96856-1.665a56.77333,56.77333,0,0,1,11.17186,4.27959,2.61518,2.61518,0,0,1,.01861-1.49605c1.06675-3.07734,9.04973-2.49734,17.82088,1.297a48.84188,48.84188,0,0,1,5.93166,3.05526c.67286-1.219,4.13306-1.14667,7.98336.21008a18.1661,18.1661,0,0,1,4.98022,2.58488l30.6543,1.89527h-136.045Z"/><path class="cls-21" d="M1066.86532,425.705a5.878,5.878,0,0,1-.5891-3.64783c.76378-3.91385,6.50211-5.80722,14.61905-5.51189a11.92081,11.92081,0,0,1-.31207-5.51151c2.7763-14.0821,34.27054-16.62815,70.36594-5.68277a174.74512,174.74512,0,0,1,19.34813,7.10993,10.35712,10.35712,0,0,1-.338-5.01371c1.9398-9.84324,20.088-13.18089,43.46146-9.11291a7.58,7.58,0,0,1,.212-.88636c3.42633-11.00666,28.34229-9.34544,56.34664,3.46172,7.00223-2.83948,21.22171-.88446,36.6195,5.68277a96.28748,96.28748,0,0,1,22.08748,12.91867,4.2717,4.2717,0,0,1-.36417-2.84328c1.11509-4.01927,10.384-3.7091,20.70142.68389,6.03937,2.57765,11.10484,5.99294,14.0448,9.19131l58.09349,4.30165H1001.76579Z"/></g><polygon class="cls-22" points="1195.362 585.928 1285.373 585.928 1124.751 275.762 1034.737 275.762 1195.362 585.928"/><polygon class="cls-22" points="1157.204 585.928 1179.347 585.928 1018.727 275.762 996.579 275.762 1157.204 585.928"/><polygon class="cls-22" points="1464.757 585.928 1486.904 585.928 1326.282 275.762 1304.135 275.762 1464.757 585.928"/><path class="cls-23" d="M975.69782,590.09045h531.7705V271.59733H975.69782Zm523.44158-8.32892H984.02674V279.92625H1499.1394Z"/><g class="cls-24"><rect class="cls-25" x="1119.65167" y="508.57856" width="55.06486" height="73.18297"/><rect class="cls-26" x="1010.73941" y="541.29559" width="44.54687" height="40.46595"/><rect class="cls-27" x="1110.36408" y="508.57856" width="24.75613" height="73.18297"/><rect class="cls-25" x="1055.29921" y="460.4714" width="55.06486" height="121.29014"/><rect class="cls-26" x="1110.36408" y="508.57856" width="5.84604" height="73.18297"/><rect class="cls-27" x="1046.02647" y="460.4714" width="24.74128" height="121.29014"/><rect class="cls-27" x="1070.77155" y="481.73193" width="39.59633" height="8.39019" transform="translate(2181.13943 971.85405) rotate(180)"/><rect class="cls-27" x="1070.77155" y="497.00523" width="39.59633" height="8.39019" transform="translate(2181.13943 1002.40065) rotate(180)"/><rect class="cls-27" x="1070.77155" y="512.27853" width="39.59633" height="8.39019" transform="translate(2181.13943 1032.94724) rotate(180)"/><rect class="cls-27" x="1070.77155" y="527.55183" width="39.59633" height="8.39019" transform="translate(2181.13943 1063.49384) rotate(180)"/><rect class="cls-27" x="1070.77155" y="542.82512" width="39.59633" height="8.38829" transform="translate(2181.13943 1094.03854) rotate(180)"/><rect class="cls-27" x="1070.77155" y="558.09842" width="39.59633" height="8.38829" transform="translate(2181.13943 1124.58514) rotate(180)"/><rect class="cls-27" x="1070.76775" y="573.36982" width="39.59633" height="8.39171"/><rect class="cls-27" x="1070.77155" y="466.45901" width="39.59633" height="8.38981" transform="translate(2181.13943 941.30783) rotate(180)"/><polygon class="cls-25" points="1180.254 545.029 1180.254 581.762 1235.304 581.762 1235.304 527.554 1195.722 527.554 1180.254 545.029"/><polygon class="cls-27" points="1170.966 555.506 1170.966 581.762 1195.722 581.762 1195.722 527.554 1180.254 545.029 1174.717 551.278 1170.966 555.506"/><rect class="cls-27" x="1195.71865" y="527.55183" width="39.59252" height="8.39019" transform="translate(2431.02981 1063.49384) rotate(180)"/><rect class="cls-27" x="1195.71865" y="542.82512" width="39.59252" height="8.38829" transform="translate(2431.02981 1094.03854) rotate(180)"/><rect class="cls-27" x="1195.71865" y="558.09842" width="39.59252" height="8.38829" transform="translate(2431.02981 1124.58514) rotate(180)"/><rect class="cls-27" x="1195.72245" y="573.36982" width="39.59633" height="8.39171"/><rect class="cls-25" x="1119.64786" y="498.88033" width="49.57162" height="9.70014" transform="translate(2288.86734 1007.46079) rotate(180)"/><rect class="cls-25" x="1129.08426" y="490.12212" width="30.69883" height="9.70052" transform="translate(2288.86734 989.94475) rotate(180)"/><rect class="cls-25" x="1255.80446" y="562.92033" width="37.58955" height="18.8412"/><rect class="cls-27" x="1249.46405" y="562.92033" width="16.89912" height="18.8412"/><rect class="cls-25" x="1253.45173" y="552.98804" width="36.19588" height="9.93419" transform="translate(2543.09934 1115.91027) rotate(180)"/><rect class="cls-25" x="1266.88342" y="541.29939" width="11.68142" height="12.33144" transform="translate(2545.44826 1094.93023) rotate(180)"/><rect class="cls-26" x="1281.48614" y="569.94501" width="2.91754" height="11.81652"/></g><path class="cls-28" d="M1080.72059,763.606c12.46921-7.93883-3.49332-32.22646-32.51414-34.57919,0,0-3.09984,12.78129-.25465,24.143C1050.38064,762.8627,1063.26011,774.71842,1080.72059,763.606Z"/><path class="cls-29" d="M1097.44883,765.54957c14.50606-2.82083,8.5447-31.26741-17.59786-44.08218,0,0-7.5632,10.75966-9.076,22.37372C1069.48559,753.75322,1077.13061,769.50034,1097.44883,765.54957Z"/><path class="cls-30" d="M1107.584,767.48975c12.88172,3.60863,19.60118-21.82759,3.65354-42.80382,0,0-10.48835,5.63443-16.42344,14.42042C1089.74824,746.59876,1089.54387,762.44255,1107.584,767.48975Z"/><path class="cls-31" d="M1113.19252,764.24153c8.98279,7.983,24.42122-9.90831,19.80178-33.12957,0,0-10.68507.42358-18.93977,5.177C1107.01538,740.34779,1100.61184,753.05829,1113.19252,764.24153Z"/><path class="cls-32" d="M1139.17106,704.37113c49.35621-19.35955,9.87862-115.85284-90.675-144.11522,0,0-19.707,42.86853-17.50687,84.82481C1032.86613,680.88613,1070.05036,731.48378,1139.17106,704.37113Z"/><path class="cls-33" d="M1058.52726,572.43474a89.50139,89.50139,0,0,1,22.99977,24.25263,68.31548,68.31548,0,0,1,4.47482,6.98358c1.36018,2.41552,2.98067,4.63428,4.1106,7.17653,1.15962,2.5198,2.39726,4.98022,3.61624,7.44446l1.81726,3.69425,1.44961,3.88759a211.01449,211.01449,0,0,1,9.73743,31.5871c1.02946,5.44833,2.22257,10.84833,3.33386,16.27079l1.95468,16.56878c.32349,2.76108.86615,5.49667,1.01457,8.284l.424,8.37345c.30446,5.58229.5164,11.1684.9103,16.75793-.15985,11.22777-.011,22.478-.33073,33.76513-.30826,5.64167-.72842,11.27991-.93659,16.95126l-.34557,8.51084-.17088,4.26664-.40874,4.24076-1.35675,17.059-.67248,8.56678-.424,8.63718.81024.16365,5.94271-33.79482.72842-4.22935.4723-4.26283.94-8.52987,1.88081-17.06277.446-4.26626.17087-4.2891.33453-8.57781.66906-17.16325-.647-17.17047-.32691-8.58505c-.12255-2.86193-.63176-5.6938-.929-8.5409l-2.234-17.04792-3.71253-16.79523a190.09713,190.09713,0,0,0-11.37277-32.41218l-1.71716-3.94316-2.09621-3.75743-4.21451-7.50763c-1.35295-2.53084-3.21473-4.7496-4.79793-7.13924a66.01442,66.01442,0,0,0-5.16629-6.87588c-7.18037-8.931-15.77684-16.88047-26.04555-22.24736Z"/><path class="cls-34" d="M1107.99651,657.03349c-37.57433-14.7363-7.51867-88.19443,69.024-109.70767,0,0,15.00385,32.6333,13.32779,64.57357C1188.92117,639.15286,1160.61579,677.6714,1107.99651,657.03349Z"/><path class="cls-35" d="M1169.00788,556.12285c-7.78241,8.98846-14.04518,19.09771-20.29995,29.19175-2.92131,5.16252-5.80912,10.35815-8.418,15.68774l-4.02155,7.9571-3.7091,8.10209c-9.84513,21.66014-17.21881,44.376-23.039,67.437-1.3305,5.79428-2.45662,11.63309-3.69045,17.44563l-1.78415,8.73423-1.34153,8.81187-2.4825,17.64239c-.591,5.90579-1.02223,11.82984-1.431,17.75047l-.63556,8.86782c-.13739,2.95822-.14119,5.92786-.21921,8.88989l-.3273,17.75389c-.06317,5.9134.58381,11.83746.83993,17.73944.30485,5.902.73988,11.79255,1.2639,17.66484l.62795-.01142c.21541-11.75144.0373-23.51468.57239-35.25128l1.11509-17.59824c.20056-2.92854.33456-5.86469.59446-8.78942l1.01081-8.7563,2.022-17.51262,2.86536-17.38968,1.44966-8.68933,1.84347-8.61511c1.27455-5.73453,2.438-11.49531,3.802-17.20777a491.13068,491.13068,0,0,1,21.47065-67.0652c8.88266-21.71608,19.16237-43.03446,32.42318-62.41608Z"/><path class="cls-36" d="M1087.34,614.15164c70.9566-21.74957,26.16464-160.64517-111.1588-210.8299,0,0-32.08523,57.72585-33.49568,116.52189C941.47942,570.01352,987.97179,644.60881,1087.34,614.15164Z"/><path class="cls-37" d="M988.79156,421.2134q3.91327,5.4158,7.42923,11.12007c2.492,3.67751,4.798,7.48328,7.08748,11.29094,2.36186,3.75363,4.527,7.63171,6.64144,11.53794,2.09054,3.91538,4.393,7.68385,6.2738,11.71263,4.03031,7.88859,8.25243,15.63218,11.77771,23.751,1.82106,4.02308,3.74639,7.98678,5.63976,11.96152l5.10467,12.20548,5.0826,12.18644,4.58976,12.38739,4.605,12.363c1.54781,4.11441,2.67051,8.38448,4.025,12.56587,1.273,4.2126,2.68916,8.37345,4.0383,12.55637l2.0456,6.26619c.63556,2.10345,1.13754,4.248,1.71183,6.37009l6.71185,25.51043c2.02581,8.55193,3.72394,17.18912,5.60856,25.78558.88065,4.30775,1.936,8.58924,2.67206,12.92629.64657,4.3557,1.27113,8.71178,2.01055,13.05263,1.36779,8.70036,2.98448,17.37865,4.15894,26.12011.81029,8.77838,1.79138,17.54953,2.806,26.33552l1.49038,13.19.70251,13.24977,1.65018,26.57338c1.07779,17.76151.39009,35.54166,1.41955,53.51858l.98116.089,1.56109-26.7591.784-13.38335c.27515-4.46.5838-8.92.43119-13.38716l-.2116-26.81124-.11912-13.40581-.98493-13.37232-1.96987-26.74426c-.96971-8.88266-2.38583-17.717-3.56029-26.581l-1.84732-13.28288c-.70216-4.41165-1.73162-8.77115-2.583-13.15654-1.82829-8.75288-3.47124-17.5499-5.45211-26.26891a571.42634,571.42634,0,0,0-35.32211-101.1428c-15.1302-32.35091-33.06068-63.65181-56.2671-90.99624Z"/><path class="cls-38" d="M1047.00226,678.74538c43.38155-31.39756-19.59208-115.795-125.06278-118.04381,0,0-8.44953,46.89769,4.29632,87.37848C937.11268,682.61813,986.25311,722.71264,1047.00226,678.74538Z"/><path class="cls-39" d="M934.73754,569.98764a220.69161,220.69161,0,0,1,29.82537,24.1354l6.98548,6.50405,6.64525,6.85685c4.52319,4.46379,8.57781,9.38084,12.70517,14.19741a430.03813,430.03813,0,0,1,43.428,62.28973l9.13532,16.69475a89.27076,89.27076,0,0,1,4.2518,8.51845l4.04172,8.63,4.13082,8.59989c.67473,1.43858,1.407,2.85433,2.03871,4.315l1.76706,4.43372c2.30816,5.93166,4.78723,11.804,7.29565,17.68006,2.66856,5.82016,4.57145,11.92271,6.68631,17.95827l6.30692,18.15921c4.05466,12.17921,7.28081,24.61493,11.525,36.90185l.695-.134c-2.884-12.5731-5.52259-25.20939-8.61135-37.73036l-5.489-18.56452c-1.855-6.17676-3.50131-12.42811-5.92067-18.41915l-6.73278-18.1516-1.68329-4.5418c-.604-1.49414-1.30843-2.94718-1.95693-4.42648l-3.97664-8.82672-3.97665-8.83052a90.82323,90.82323,0,0,0-4.23886-8.70074l-9.13536-17.08484c-13.03589-22.28466-28.00625-43.49876-45.50934-62.50552-4.42268-4.70507-8.75821-9.49576-13.56185-13.82178l-7.05208-6.63763-7.398-6.25516c-9.98253-8.1725-20.43734-15.84721-31.914-21.88315Z"/><path class="cls-40" d="M1034.22441,548.38877a65.39109,65.39109,0,0,0-16.62774-8.91044c-2.87491-1.21556-5.859-1.99955-8.81952-2.92891-2.98448-.80835-6.02072-1.41765-9.04592-2.0829a96.655,96.655,0,0,0-18.60521-1.44581,54.82277,54.82277,0,0,0-18.68711,3.47505l.01865.65611c12.12707-.11341,24.19858,1.52725,36.10648,3.75895a351.463,351.463,0,0,1,35.46741,8.104Z"/><path class="cls-41" d="M1022.8817,508.59188a48.47934,48.47934,0,0,0-12.45817-9.91973,71.23832,71.23832,0,0,0-6.9147-3.56981c-2.371-1.03326-4.81467-1.88994-7.24161-2.80028a72.09355,72.09355,0,0,0-15.31592-3.12187,41.49128,41.49128,0,0,0-15.99792,1.44924l-.07079.65231a155.69741,155.69741,0,0,1,29.35159,7.24541,293.08674,293.08674,0,0,1,28.37046,10.65919Z"/><path class="cls-42" d="M1072.67063,539.811a51.63267,51.63267,0,0,0,4.828-9.33783c1.21519-2.99742,2.31886-5.8723,3.2703-8.65774.34937-1.46065.95525-2.75423,1.40128-4.12735l.69494-2.03114a16.28151,16.28151,0,0,0,.76572-1.97709,44.79491,44.79491,0,0,1,4.43752-8.51654l-.22683-.55755a18.71485,18.71485,0,0,0-8.02788,6.21025,32.34552,32.34552,0,0,0-4.71991,9.02575,61.36992,61.36992,0,0,0-3.02136,19.97114Z"/><path class="cls-43" d="M1049.32112,496.43474a37.78976,37.78976,0,0,0,1.955-7.86043c.41825-2.47907.58913-4.85577.851-7.14684.11345-2.31353.34023-4.52125.57619-6.69739a28.491,28.491,0,0,1,1.67263-7.15256l-.26031-.37182a14.02075,14.02075,0,0,0-4.72752,6.20112,25.69724,25.69724,0,0,0-1.78376,7.62637,55.94591,55.94591,0,0,0,1.27264,15.502Z"/><path class="cls-44" d="M1058.44544,834.82631h61.00186a5.98544,5.98544,0,0,0,5.9427-5.27746l8.40694-70.70389a5.9825,5.9825,0,0,0-5.94271-6.68978H1050.0385a5.98217,5.98217,0,0,0-5.9408,6.68978l8.40694,70.70389A5.98362,5.98362,0,0,0,1058.44544,834.82631Z"/><path class="cls-45" d="M1042.1522,766.17029h93.58872a3.9488,3.9488,0,0,0,3.90243-3.34869l1.8359-12.01937a3.94352,3.94352,0,0,0-3.90243-4.54142H1040.314a3.94523,3.94523,0,0,0-3.90053,4.54142l1.83819,12.01937A3.9448,3.9448,0,0,0,1042.1522,766.17029Z"/><path class="cls-46" d="M1114.83509,607.14219h680.864a11.30939,11.30939,0,0,0,11.30578-11.3096h0a11.30938,11.30938,0,0,0-11.30578-11.30959h-680.864a11.30939,11.30939,0,0,0-11.30579,11.30959h0A11.3094,11.3094,0,0,0,1114.83509,607.14219Z"/><path class="cls-47" d="M1617.92458,607.14219h177.77455a11.30939,11.30939,0,0,0,11.30578-11.3096h0a11.30938,11.30938,0,0,0-11.30578-11.30959H1617.92458a11.31015,11.31015,0,0,0-11.30954,11.30959h0A11.31016,11.31016,0,0,0,1617.92458,607.14219Z"/><rect class="cls-47" x="1768.22264" y="607.13457" width="22.64507" height="263.35595"/><rect class="cls-47" x="1622.84544" y="607.17187" width="22.64126" height="263.31865"/><rect class="cls-48" x="1622.84544" y="607.17187" width="11.33928" height="263.31865"/><rect class="cls-47" x="1119.68516" y="607.17187" width="22.64126" height="263.31865"/><rect class="cls-49" x="1265.06236" y="607.13457" width="22.60815" height="263.35595"/><rect class="cls-50" x="1119.68516" y="607.17187" width="11.33928" height="263.31865"/><polygon class="cls-51" points="1790.857 607.142 1790.857 614.412 1768.241 630.564 1768.241 607.142 1790.857 607.142"/><polygon class="cls-52" points="1622.853 607.142 1645.468 607.142 1645.468 614.412 1622.853 630.564 1622.853 607.142"/><polygon class="cls-53" points="1265.07 607.142 1287.685 607.142 1287.685 614.412 1265.07 630.564 1265.07 607.142"/><polygon class="cls-54" points="1142.297 607.142 1142.297 614.412 1119.681 630.564 1119.681 607.142 1142.297 607.142"/><polygon class="cls-55" points="1657.974 517.143 1448.862 517.143 1464.226 381.034 1673.339 381.034 1657.974 517.143"/><polygon class="cls-56" points="1469.437 390.821 1467.218 410.454 1451.854 546.564 1660.966 546.564 1676.334 410.454 1678.549 390.821 1469.437 390.821"/><polygon class="cls-57" points="1657.974 543.572 1448.862 543.572 1464.226 407.462 1673.339 407.462 1657.974 543.572"/><polygon class="cls-21" points="1652.987 535.842 1455.596 535.842 1463.037 469.925 1660.427 469.925 1652.987 535.842"/><polygon class="cls-58" points="1517.458 528.122 1461.119 528.122 1467.162 474.609 1523.502 474.609 1517.458 528.122"/><polygon class="cls-59" points="1534.793 507.477 1489.461 507.477 1494.323 464.418 1539.654 464.418 1534.793 507.477"/><polygon class="cls-60" points="1507.49 461.023 1464.04 461.023 1465.664 446.657 1509.115 446.657 1507.49 461.023"/><polygon class="cls-61" points="1491.877 451.08 1470.942 451.08 1471.169 449.089 1492.104 449.089 1491.877 451.08"/><polygon class="cls-58" points="1653.477 496.138 1597.138 496.138 1600.557 465.872 1656.893 465.872 1653.477 496.138"/><polygon class="cls-62" points="1652.704 502.993 1596.365 502.993 1596.61 500.822 1652.949 500.822 1652.704 502.993"/><polygon class="cls-62" points="1652.195 507.477 1595.86 507.477 1596.105 505.306 1652.44 505.306 1652.195 507.477"/><polygon class="cls-60" points="1558.805 455.954 1515.355 455.954 1516.975 441.588 1560.429 441.588 1558.805 455.954"/><polygon class="cls-63" points="1673.588 461.023 1578.823 461.023 1580.447 446.657 1675.208 446.657 1673.588 461.023"/><polygon class="cls-60" points="1619.627 451.08 1583.468 451.08 1583.695 449.089 1619.85 449.089 1619.627 451.08"/><polygon class="cls-60" points="1619.203 454.837 1583.045 454.837 1583.271 452.845 1619.426 452.845 1619.203 454.837"/><polygon class="cls-21" points="1650.831 437.832 1453.441 437.832 1455.681 418.012 1653.069 418.012 1650.831 437.832"/><polygon class="cls-64" points="1648.099 435.104 1633.735 435.104 1635.355 420.738 1649.72 420.738 1648.099 435.104"/><polygon class="cls-58" points="1627.525 435.104 1613.16 435.104 1614.78 420.738 1629.145 420.738 1627.525 435.104"/><polygon class="cls-58" points="1606.95 435.104 1592.585 435.104 1594.206 420.738 1608.57 420.738 1606.95 435.104"/><polygon class="cls-58" points="1507.974 424.209 1460.758 424.209 1461.071 421.438 1508.286 421.438 1507.974 424.209"/><polygon class="cls-58" points="1507.416 429.135 1460.201 429.135 1460.517 426.365 1507.732 426.365 1507.416 429.135"/><polygon class="cls-58" points="1480.582 434.06 1459.647 434.06 1459.959 431.289 1480.895 431.289 1480.582 434.06"/><polygon class="cls-58" points="1587.192 515.854 1530.857 515.854 1534.272 485.59 1590.608 485.59 1587.192 515.854"/><polygon class="cls-62" points="1586.419 522.709 1530.08 522.709 1530.325 520.54 1586.664 520.54 1586.419 522.709"/><polygon class="cls-62" points="1585.914 527.193 1529.574 527.193 1529.82 525.024 1586.159 525.024 1585.914 527.193"/><polygon class="cls-59" points="1585.49 499.845 1563.89 499.845 1566.015 481.005 1587.616 481.005 1585.49 499.845"/><polygon class="cls-65" points="1673.339 407.462 1464.226 407.462 1466.445 387.829 1675.558 387.829 1673.339 407.462"/><polygon class="cls-66" points="1669.938 403.348 1468.556 403.348 1469.288 396.87 1670.67 396.87 1669.938 403.348"/><polygon class="cls-60" points="1472.901 394.686 1469.533 394.686 1469.916 391.321 1473.28 391.321 1472.901 394.686"/><polygon class="cls-60" points="1478.888 394.686 1475.52 394.686 1475.899 391.321 1479.267 391.321 1478.888 394.686"/><polygon class="cls-60" points="1484.872 394.686 1481.504 394.686 1481.883 391.321 1485.251 391.321 1484.872 394.686"/><polygon class="cls-67" points="1485.67 564.169 1453.441 390.145 1678.549 390.145 1520.513 564.169 1485.67 564.169"/><g class="cls-68"><path class="cls-69" d="M1618.48936,382.87145l6.05084,15.1283a1.6357,1.6357,0,0,1-.91078,2.124l-29.1377,11.65135a1.63547,1.63547,0,0,1-2.1259-.91072l-6.05074-15.1283a1.644,1.644,0,0,1,.91067-2.124l29.14151-11.65136a1.63584,1.63584,0,0,1,2.1221.91072Z"/><path class="cls-70" d="M1617.54172,381.94779l-8.37725,14.72147a5.69484,5.69484,0,0,1-6.57827,2.6313l-16.219-4.88546a1.63746,1.63746,0,0,1,.85858-.803l29.14151-11.65136A1.63114,1.63114,0,0,1,1617.54172,381.94779Z"/></g><path class="cls-71" d="M1512.86109,567.73348h-20.93552a33.9751,33.9751,0,0,0-28.101,14.8756L1462.52,584.523h79.74639l-1.30457-1.91392A33.97455,33.97455,0,0,0,1512.86109,567.73348Z"/><path class="cls-72" d="M1515.32494,570.34994c0,.67819-5.79047,1.22851-12.93351,1.22851-7.13962,0-12.93009-.55032-12.93009-1.22851,0-.68009,5.79047-1.23,12.93009-1.23C1509.53447,569.11992,1515.32494,569.66985,1515.32494,570.34994Z"/><g class="cls-20"><path class="cls-73" d="M1556.55661,363.92064a26.472,26.472,0,0,0-38.62243,11.82985l24.33216,10.464Z"/><path class="cls-74" d="M1567.346,377.707l-25.07962,8.50741-26.46187-.88066c-.01865.29723-.02588.58343-.02588.88066a26.48794,26.48794,0,1,0,52.97588,0A26.21975,26.21975,0,0,0,1567.346,377.707Z"/><path class="cls-75" d="M1567.346,377.707a26.3926,26.3926,0,0,0-10.78935-13.78639l-14.29027,22.2938Z"/><path class="cls-76" d="M1517.93418,375.75049a25.87327,25.87327,0,0,0-2.12971,9.58329l26.46187.88066Z"/></g><polygon class="cls-77" points="1502.436 293.083 977.874 293.083 981.68 284.838 1506.242 284.838 1502.436 293.083"/><path class="cls-78" d="M1055.97782,359.36781a1.90161,1.90161,0,0,1-1.90288-1.90289V288.96114a1.90288,1.90288,0,1,1,3.80576,0v68.50378A1.9019,1.9019,0,0,1,1055.97782,359.36781Z"/><path class="cls-79" d="M1426.27612,359.36781a1.90163,1.90163,0,0,1-1.90289-1.90289V288.96114a1.90288,1.90288,0,0,1,3.80577,0v68.50378A1.90187,1.90187,0,0,1,1426.27612,359.36781Z"/><polygon class="cls-80" points="1502.436 304.5 977.874 304.5 981.68 296.255 1506.242 296.255 1502.436 304.5"/><polygon class="cls-81" points="1502.436 315.917 977.874 315.917 981.68 307.672 1506.242 307.672 1502.436 315.917"/><polygon class="cls-82" points="1502.436 327.335 977.874 327.335 981.68 319.089 1506.242 319.089 1502.436 327.335"/><polygon class="cls-83" points="1502.436 338.752 977.874 338.752 981.68 330.507 1506.242 330.507 1502.436 338.752"/><polygon class="cls-84" points="1502.436 350.169 977.874 350.169 981.68 341.924 1506.242 341.924 1502.436 350.169"/><polygon class="cls-85" points="1502.436 361.587 977.874 361.587 981.68 353.341 1506.242 353.341 1502.436 361.587"/><g class="cls-86"><path class="cls-87" d="M1840.402,280.53746a23.96431,23.96431,0,1,1-23.96453-23.96263A23.9633,23.9633,0,0,1,1840.402,280.53746Z"/><path class="cls-88" d="M1840.44656,238.75205V218.913a10.611,10.611,0,0,0-10.58079-10.58079h-9.85655V0h-7.13962V208.33218h-9.86a10.61049,10.61049,0,0,0-10.57736,10.58079v19.83908a48.16311,48.16311,0,0,0-24.191,41.78541h96.39281A48.16717,48.16717,0,0,0,1840.44656,238.75205Z"/></g><path class="cls-89" d="M1378.191,844.78333c1.36018,2.27433,1.50523,5.86469,9.93457,9.01624,8.429,3.15156,26.01583,3.96942,16.44585,7.57081-9.57416,3.601-17.08522,3.01417-22.86808,2.40829-5.78324-.60968-9.19854.301-15.97775.59066-8.92718.37943-9.0238-.14843-8.29542-9.91555C1358.43378,841.01448,1373.798,837.43174,1378.191,844.78333Z"/><path class="cls-90" d="M1358.43378,844.49714c14.56162-50.00281,21.3218-143.54511,46.42729-180.09759,15.95149-23.22468,46.91824-14.05964,35.4412,17.09246-12.26827,33.29322-43.3648,95.449-60.78075,161.78234C1377.812,849.79324,1356.80986,850.36563,1358.43378,844.49714Z"/><path class="cls-91" d="M1431.35643,693.04327c13.32779-4.91705,24.86383-50.48235-24.18335-44.3387-21.76056,2.72417-98.6789,8.53329-110.26331,9.95284-11.58475,1.42336-28.47284,4.22212-30.32358,10.15378-9.24687,29.63969,26.737,56.30212,70.0238,46.60922C1365.54751,708.94261,1403.72391,703.234,1431.35643,693.04327Z"/><path class="cls-92" d="M1300.37,579.67673c-7.12477,5.41865-14.7363,5.31818-35.62729,7.81971-30.08534,3.6014-37.46282,2.53084-56.59212-1.84732-12.49128-2.85813-2.661-30.10056,14.621-30.85486,14.61-.63747,65.50446,14.766,74.39473,14.342C1303.04961,568.8577,1306.15283,575.27993,1300.37,579.67673Z"/><path class="cls-93" d="M1203.90256,571.62107c1.30462-6.874,6.56343-21.729,28.19388-53.29023,13.19763-19.25337,20.20709-26.5437,25.05335-31.87139,8.641-9.49577,21.5003-6.26619,24.49239-.223,4.81662,9.73553,4.76824,26.1909.54613,31.444-23.8416,29.64159-43.98933,50.982-48.49383,59.17547C1227.11621,588.82313,1202.36009,579.7696,1203.90256,571.62107Z"/><path class="cls-89" d="M1415.77677,849.06482c1.35638,2.27433,7.58185,7.38851,16.01086,10.54007,8.42939,3.15155,26.01621,3.96561,16.44585,7.567-9.57378,3.60482-21.00212,2.26329-26.78536,1.65361a121.14213,121.14213,0,0,0-18.13675-.17469c-8.92719.38286-9.02381-.14462-8.29543-9.91173C1396.01571,845.29978,1411.38378,841.717,1415.77677,849.06482Z"/><path class="cls-94" d="M1275.89243,431.865c1.80621,18.07929,2.33788,22.08029,10.2356,29.48365,7.89392,7.40335,20.23678,8.483,28.80318,8.48115,9.25448,0,15.357-11.1646,17.44944-18.81343,2.16319-7.9198,4.4006-22.79729,1.80626-42.59375-1.3157-10.03466-13.70309-22.20816-26.47671-22.20816C1294.9361,386.21444,1271.48117,387.69564,1275.89243,431.865Z"/><path class="cls-94" d="M1285.09858,463.70858c-.48714,6.27-.95145,13.48193-1.15962,20.064-.26755,8.63148,6.463,16.70769,15.05941,17.51033a9.61152,9.61152,0,0,0,.98874.04491c7.80829,0,16.99579-7.06921,16.30809-14.88512-.44946-5.08221-.61692-10.20744-.6428-14.699a20.321,20.321,0,0,0-13.54319-19.06575h0A12.77286,12.77286,0,0,0,1285.09858,463.70858Z"/><path class="cls-95" d="M1248.929,540.98922c14.51291,47.69652,19.27011,76.21351,16.431,109.5288h109.25939s-.639-81.08793-7.95714-137.12821c-1.70189-13.03589-9.19853-24.77287-23.06141-32.137-8.22084-4.36711-23.07969-6.45039-29.12287-6.45039H1294.2895c-6.76779,0-14.75457.64317-21.3218,2.65566C1243.172,486.5877,1240.51822,513.34338,1248.929,540.98922Z"/><path class="cls-96" d="M1265.80563,717.36059s-9.43982-22.93126-.44566-66.84257h109.25939a620.78732,620.78732,0,0,1,3.98041,66.84257Z"/><path class="cls-97" d="M1395.83722,849.67032c18.59807-48.64606,32.98115-141.32217,60.98511-175.70079,17.79881-21.84586,47.91421-10.17586,33.92879,19.93232-14.94786,32.18155-51.02124,91.58347-73.79608,156.27425C1414.71382,856.53516,1393.73758,855.38658,1395.83722,849.67032Z"/><path class="cls-98" d="M1480.89114,704.68358c13.68439-3.80957,28.90745-48.27842-20.4822-46.16736-21.90528.9366-99.04282.44223-110.70521.91072-11.659.47191-28.72173,1.87662-31.052,7.63741-11.63655,28.78833,22.0468,58.30167,65.98014,52.18047C1414.004,715.15286,1452.51877,712.58131,1480.89114,704.68358Z"/><path class="cls-94" d="M1329.42243,428.06682c-2.55329,6.25478-1.96987,12.40756,1.308,13.74567,3.27448,1.33773,8.002-2.64615,10.55529-8.8994,2.55291-6.25516,1.96948-12.40794-1.30462-13.74567C1336.70285,417.82741,1331.97914,421.81357,1329.42243,428.06682Z"/><path class="cls-94" d="M1282.341,428.06682c2.55667,6.25478,1.96944,12.40756-1.30466,13.74567-3.27448,1.33773-8.00162-2.64615-10.55491-8.8994-2.55709-6.25516-1.96986-12.40794,1.30424-13.74567C1275.06011,417.82741,1279.78763,421.81357,1282.341,428.06682Z"/><path class="cls-99" d="M1281.45608,396.24187c7.03952,10.51038,41.06459,11.49341,52.16981,7.62066,11.101-3.87274,10.3319-25.34525-5.55261-26.81694-8.94579-.01675-2.468,2.1259-9.71536,5.06928C1314.68616,383.6052,1273.945,385.02323,1281.45608,396.24187Z"/><path class="cls-94" d="M1478.35992,505.126c4.54561-2.84329,43.48773-27.55641,43.023-17.87111-.51644,10.70371-13.87767,22.23632-18.70534,25.53478-8.82328,6.03366-18.35254,7.98678-21.98743,3.24061C1478.11483,512.66862,1474.04152,507.83,1478.35992,505.126Z"/><path class="cls-100" d="M1486.06089,503.0876c-8.25471,1.80812-57.8857,16.74842-73.39876,24.55709-8.97894-4.92086-28.37579-24.93995-59.92939-43.89837-11.7073-7.03344-22.37372-4.6438-31.8809.61159-5.89817,3.26116-8.54047,16.25632,1.33811,24.45318,5.54119,4.59927,13.14549,11.2723,32.977,23.57977,32.51265,20.1736,47.59072,24.75232,54.51835,25.74067a3.9108,3.9108,0,0,0,.84755-.04262c.0891-.00381.18191-.00723.27477-.01484a4.23688,4.23688,0,0,0,.70635-.14691,8.01749,8.01749,0,0,0,1.32674-.27287c12.94488-4.4379,29.31272-10.9549,53.7229-25.32661,19.96162-11.74992,22.10617-10.69458,26.1498-18.544C1495.99127,507.40981,1490.51706,502.1118,1486.06089,503.0876Z"/><path class="cls-101" d="M1319.73675,394.42043c10.47727,6.32594,12.91144,11.87475,12.62144,24.82882-.29342,12.95406-5.835,35.05643-29.68763,39.99212-23.853,4.93532-29.47984-18.72779-30.91842-35.05833-1.4382-16.33092-.50541-28.5284,11.55506-31.45922C1301.21375,388.37193,1313.38911,390.58879,1319.73675,394.42043Z"/><path class="cls-102" d="M1406.54855,856.89556a7.91,7.91,0,0,1-7.74892-6.32937H1263.66869a7.91266,7.91266,0,0,1-15.66529-1.58319,14.25623,14.25623,0,0,1,14.23813-14.23813H1400.223a14.25623,14.25623,0,0,1,14.23813,14.23813A7.91186,7.91186,0,0,1,1406.54855,856.89556Z"/><path class="cls-103" d="M1446.66513,717.26011h-41.69255c-22.04642,0-36.03946-11.6327-39.39919-32.75013-4.11784-25.87845-11.76286-110.52134-11.84088-111.3746-.5427-6.015-5.95792-9.938-12.10119-8.7544H1215.99653c-6.13984,1.18017-10.67784,7.01327-10.13514,13.02866.31588,3.50854,7.78622,86.21315,12.01557,112.79034,4.90943,30.84383,27.00457,49.25955,59.10468,49.25955H1444.309a12.64618,12.64618,0,0,0,12.27549-11.10142A9.79473,9.79473,0,0,0,1446.66513,717.26011Z"/><path class="cls-104" d="M1312.50465,739.45953h37.4552a0,0,0,0,1,0,0v17.72462a1.4043,1.4043,0,0,1-1.4043,1.4043H1313.908a1.4033,1.4033,0,0,1-1.4033-1.4033V739.45953A0,0,0,0,1,1312.50465,739.45953Z"/><rect class="cls-105" x="1318.66657" y="758.58845" width="25.13137" height="74.44649"/><path class="cls-106" d="M1315.71384,819.451h31.03682a1.3809,1.3809,0,0,1,1.3809,1.3809v21.82552a0,0,0,0,1,0,0h-33.79862a0,0,0,0,1,0,0V820.83191A1.3809,1.3809,0,0,1,1315.71384,819.451Z"/><path class="cls-107" d="M1364.98236,856.89556a7.91481,7.91481,0,0,1-7.75273-6.32937h-51.99475a7.91056,7.91056,0,0,1-15.66149-1.58319,14.25379,14.25379,0,0,1,14.23814-14.23813H1358.653a14.25378,14.25378,0,0,1,14.23813,14.23813A7.90837,7.90837,0,0,1,1364.98236,856.89556Z"/><path class="cls-108" d="M1310.8842,859.75712a10.77262,10.77262,0,1,1-10.77074-10.77412A10.77327,10.77327,0,0,1,1310.8842,859.75712Z"/><path class="cls-109" d="M1305.625,859.75712a10.77239,10.77239,0,1,1-10.77412-10.77412A10.77373,10.77373,0,0,1,1305.625,859.75712Z"/><path class="cls-110" d="M1378.38436,859.75712a10.77241,10.77241,0,1,1-10.7707-10.77412A10.7708,10.7708,0,0,1,1378.38436,859.75712Z"/><path class="cls-111" d="M1373.12555,859.75712a10.7726,10.7726,0,1,1-10.7745-10.77412A10.774,10.774,0,0,1,1373.12555,859.75712Z"/><path class="cls-112" d="M1269.318,859.75712a10.77239,10.77239,0,1,1-10.77446-10.77412A10.774,10.774,0,0,1,1269.318,859.75712Z"/><path class="cls-113" d="M1264.05536,859.75712a10.7707,10.7707,0,1,1-10.7707-10.77412A10.77081,10.77081,0,0,1,1264.05536,859.75712Z"/><path class="cls-114" d="M1419.954,859.75712a10.77239,10.77239,0,1,1-10.77412-10.77412A10.77373,10.77373,0,0,1,1419.954,859.75712Z"/><path class="cls-115" d="M1414.69137,859.75712a10.77241,10.77241,0,1,1-10.77032-10.77412A10.77292,10.77292,0,0,1,1414.69137,859.75712Z"/><polygon class="cls-116" points="1343.798 767.475 1318.667 760.462 1318.667 758.588 1343.798 758.588 1343.798 767.475"/><polygon class="cls-117" points="1349.96 748.346 1312.505 741.332 1312.505 739.46 1349.96 739.46 1349.96 748.346"/><path class="cls-105" d="M1444.309,739.45953h-41.69255c-32.10011,0-54.19486-18.41572-59.10468-49.25955-4.22935-26.57719-11.69964-109.28561-12.01552-112.79034-.54275-6.0173,3.99525-11.85039,10.13509-13.03056,6.14327-1.17979,11.55849,2.73939,12.10119,8.7544.078.85325,7.723,85.49805,11.84088,111.37269,3.36354,21.12124,17.35277,32.75394,39.39919,32.75394h41.69255a9.79569,9.79569,0,0,1,9.92315,11.098A12.6473,12.6473,0,0,1,1444.309,739.45953Z"/><g class="cls-118"><path class="cls-119" d="M1110.36788,329.8971c54.5998-35.2608,146.28416,19.7759,189.76423,74.01567,44.39045,55.37694-58.54709,86.51229-19.59741,145.102,45.41653,68.31426,18.89487,95.75383,35.05833,159.21421,14.52052,57.00847,107.0109,16.07061,159.92741,97.047,81.31138,124.43446,2.11106,309.14768-77.86178,377.41018-82.10673,70.08318-158.57864-53.61905-265.15492-131.49225-78.69106-57.49523-138.93287-126.077-132.31163-196.09361,9.5087-100.54072,110.28347-46.20085,45.08919-134.41355-39.011-52.78636-80.58633-155.2018,10.84681-176.54605C1147.55935,522.79842,1031.7381,380.67667,1110.36788,329.8971Z"/></g></g></g></g></svg>