<svg xmlns="http://www.w3.org/2000/svg" viewBox="0 0 694.98 126.1"><defs><style>.cls-1{fill:#ff6700;}.cls-2{fill:#ea6a13;}.cls-3{fill:#f25100;}.cls-4{fill:#ff2508;}.cls-5{fill:#821919;}</style></defs><title>W-original</title><g id="Camada_2" data-name="Camada 2"><g id="Camada_1-2" data-name="Camada 1"><path class="cls-1" d="M117.59,55.83c-1.62-2.88-4.07-5.08-6.33-7.41-2-2.11-4.35-3.95-6-5.46a10,10,0,0,1-1.28,7c-2.39,4.13-4.66,8.33-7,12.49q-5,8.84-9.55,17.88c-1,2-1.93,4-2.89,5.94,1.6-1.17,3-2.46,4.44-3.68,3.29-2.8,6.89-4.86,11.41-4.69a5,5,0,0,1,5,5.64c-.3,3.13-2.21,5.47-4.23,7.63a36.34,36.34,0,0,1-16.84,9.87c-4.45,1.29-9,1.72-13.6.19a4.57,4.57,0,0,1-3.28-3.57c-.64-2.83,0-5.55.72-8.21a67.78,67.78,0,0,1,4-10.22c.39-.85.39-1.26-.68-1.41a8.15,8.15,0,0,1-4.1-1.8c-.54-.45-.88-.42-1.32.21a44.32,44.32,0,0,1-4.47,5.45,24.21,24.21,0,0,1-10.49,6.54,19.23,19.23,0,0,1-10.5,0,7.17,7.17,0,0,1-3.51-5,25.41,25.41,0,0,1,.34-8.77c.33-1.74,1.25-3.33,1.39-5.34-1.12.83-2.11,1.57-3.11,2.3a17.9,17.9,0,0,1-18.11,2.31A5.72,5.72,0,0,1,14,68.62c-.5-4.86,1.48-9.08,3.23-13.36,2.27-5.57,5-10.94,7.24-16.53.41-1-.06-2.68,1.12-3,1-.26,2.24.38,3.32.78,6.6,2.44,8.52,6.3,6.84,12.35-1.08,3.89-3.05,7.54-4.63,11.29a36.16,36.16,0,0,0-2.66,7.51c-.25,1.39.27,1.93,1.64,1.59a5.86,5.86,0,0,0,1.25-.51,45.7,45.7,0,0,0,7.54-5.16,11.3,11.3,0,0,0,4.18-6.1c.21-.83.55-1.62.8-2.44a1.16,1.16,0,0,1,1.48-.9c3.42.6,6.79,1.29,8.83,4.57.72,2.12,1.27,4.24.59,6.5-1,3.22-1.93,6.45-2.77,9.71-.49,1.9-.77,3.85-1.07,5.79-.13.79.1,1.08,1,.69,4.38-1.83,7.59-5,10.39-8.7.46-.61.25-1.12-.22-1.72a17.13,17.13,0,0,1-3.05-4.64c-1.79-4.87-.76-9.77,5.55-10.57,4.24-.54,8,2.93,7.18,8.46-.48,3.11-2,5.76-3.49,8.45-.23.43-.56.77,0,1.12a16.24,16.24,0,0,0,4.07,1.9c1,.26,1.48-.13,1.85-1a42.71,42.71,0,0,1,2-4.35c4.32-7.77,8.74-15.48,13-23.27,2.09-3.82,4.63-7.42,5.95-11.63.2-.64.54-.56,1-.42a7.06,7.06,0,0,0,2.41.68c-.26-.27-.42-.45-.6-.63-6.33-6.24-12.64-12.51-19-18.72-3.6-3.52-6.71-7.57-12-9-3.23-.9-6.35-1.73-9.68-1.17-2.17.36-4.38.67-6.21,2.09-2.62,1.24-4.6,3.23-6.7,5.21-5,4.71-9.62,9.8-14.65,14.48-2.71,2.51-5.26,5.2-7.85,7.83C16.25,41.52,10.34,47.15,4.89,53.18.23,58.33-1,64.62.76,71.38,1.85,75.61,4.42,78.92,7.4,82c6.47,6.72,12.85,13.53,19.6,20l.23,0L27,102a20.91,20.91,0,0,1,1.87,1.49q8.32,8.25,16.6,16.55a21.84,21.84,0,0,0,7.91,5.1c3.08,1.15,6.18,1.06,9.38.85a21.68,21.68,0,0,0,6-1.48c3.44-1.22,5.63-4,8.13-6.41,4.45-4.21,8.68-8.65,13-13C97,97.92,104.15,90.73,111.34,83.6c3.84-3.81,7.52-7.61,8.61-13.26A20.67,20.67,0,0,0,117.59,55.83Z"/><path class="cls-2" d="M81.36,97.89c.67-.19,1.37-.32,2-.57a35.25,35.25,0,0,0,15.08-11.1,7.2,7.2,0,0,0,1.75-3.95c0-1.51-1.56-2.35-3.12-1.6-2.43,1.16-4.24,3.08-6.24,4.84-3.89,3.43-6.7,7.69-9.93,11.63-.15.19-.37.4-.22.67S81.13,98,81.36,97.89Z"/><path class="cls-2" d="M64.05,59.6A3.22,3.22,0,0,0,61.47,63c.08,2.26,1.22,4.08,2.43,5.88.38.57.76.55,1.12-.06a21.91,21.91,0,0,0,2.35-4.67,3.85,3.85,0,0,0,0-3.23A2.9,2.9,0,0,0,64.05,59.6Z"/><path class="cls-3" d="M109.84,16.49a3.18,3.18,0,0,1,3,2.85,3.21,3.21,0,0,1-3.11,3.07c-1.43,0-3.09-1.48-3-2.86A3.07,3.07,0,0,1,109.84,16.49Z"/><path class="cls-4" d="M115.46,3.1a2.26,2.26,0,0,1-2.9,1.44,2.32,2.32,0,0,1-1.35-3A2.55,2.55,0,0,1,114.15.1,2.43,2.43,0,0,1,115.46,3.1Z"/><path class="cls-5" d="M97.45,5.47a1.37,1.37,0,0,1-1.13-1.53A1.44,1.44,0,0,1,97.8,2.53,1.48,1.48,0,0,1,99.32,4.2C99.24,5,98.71,5.54,97.45,5.47Z"/><path d="M258.71,16.44a8.76,8.76,0,0,1,1.63,4.86,21.34,21.34,0,0,1-.56,5.47,83.43,83.43,0,0,1-2.94,9,128.71,128.71,0,0,1-7.68,16.3Q246.3,57.3,243,62.38q-2.85,4.35-6.54,9.43a80.7,80.7,0,0,1-8,9.42q-.63.62-1.84,1.7A19.84,19.84,0,0,1,223.89,85a20.76,20.76,0,0,1-3.4,1.69,8.6,8.6,0,0,1-3.7.6,8.88,8.88,0,0,1-3.54-.91,19.28,19.28,0,0,1-2.7-1.64,18.26,18.26,0,0,1-2.38-2.21,18.88,18.88,0,0,1-3-6.12,31.7,31.7,0,0,1-1.09-6.94q-2.22,3.32-4.22,6.22a51.52,51.52,0,0,1-4,5.13,23.47,23.47,0,0,1-4.09,3.67,11.1,11.1,0,0,1-4.6,1.84,12.87,12.87,0,0,1-4.53.17,19.31,19.31,0,0,1-3.38-.86,11.63,11.63,0,0,1-2.9-1.59,8.69,8.69,0,0,1-2.88-4.61,15.53,15.53,0,0,1-.38-5,23,23,0,0,1,1.19-5.51,15.78,15.78,0,0,0-1-2.72,2.44,2.44,0,0,0-1.66-1.47,6.42,6.42,0,0,0-2.82.29,10.75,10.75,0,0,0-.94.62,2.46,2.46,0,0,1-1.26.67,6.16,6.16,0,0,1-1.25.15A8.18,8.18,0,0,1,161,65.32a11,11,0,0,1-2.9-2.58A14.3,14.3,0,0,1,155.95,59a17.54,17.54,0,0,1-1.2-5.85,22.57,22.57,0,0,1,.57-5.73,26.85,26.85,0,0,1,1.87-5.4,33.65,33.65,0,0,1,2.8-4.88,55.59,55.59,0,0,1,3.9-5.28,50.78,50.78,0,0,1,3.78-4.09q1.78-1.71,3-2.74t1.52-1.24a55.94,55.94,0,0,1,6.39-4.53,38.49,38.49,0,0,1,8.37-3.79,32.9,32.9,0,0,1,5-1.32,39.77,39.77,0,0,1,5.16-.74,28,28,0,0,1,6.09.2,12.82,12.82,0,0,1,2.7.7,4.24,4.24,0,0,1,2.48,2.47c.14.35.27.73.41,1.15a10.17,10.17,0,0,1,.18,3,18.55,18.55,0,0,1-.44,3,39.22,39.22,0,0,1-1.71,5.56q-1.59,3.53-3.28,6.85-1.48,2.8-3.07,5.86a57.45,57.45,0,0,1-3,5.14q-1.48,2.18-3,4.56l-2.9,4.67q-1.42,2.28-2.64,4.3T187,64.33A20.74,20.74,0,0,0,184,71.08a7.46,7.46,0,0,0,.23,4,3.74,3.74,0,0,0,2.38,2.31q2,.33,4.44-1.84a33.19,33.19,0,0,0,5-5.85,93.69,93.69,0,0,0,5.17-8.35q2.59-4.67,5-9.23,1.27-2.38,2.7-5.24t2.7-5.35q1.38-2.9,2.86-5.81,1.48-2.7,2.91-5.19t2.9-4.67l1.05-1.35a7.69,7.69,0,0,1,1.84-1.65,7.37,7.37,0,0,1,2.46-1,4.86,4.86,0,0,1,5.19,2.44,6.44,6.44,0,0,1,.6,3.08,10.3,10.3,0,0,1-1.6,4.73q-3.69,5.6-7,11.41a87,87,0,0,0-5.46,11.47,51.12,51.12,0,0,0-3,10.87,21.3,21.3,0,0,0,.55,9.49,9.5,9.5,0,0,0,1.8,3.5,12,12,0,0,0,2.64,2.37A93,93,0,0,0,225.69,74q2.89-3.73,5.38-7.62t4.49-7.73q2-3.84,3.6-7.27a156.43,156.43,0,0,0,6.38-16.21q1.18-3.95,1.93-7.38a45.44,45.44,0,0,0,.88-5.88,7.26,7.26,0,0,0-.59-4.22c-.27-.49-.52-.73-.72-.73h-.31a.9.9,0,0,1-.62-.32,1.41,1.41,0,0,1-.41-1,2.45,2.45,0,0,1,.8-1.87,8.4,8.4,0,0,1,1.31-1,5.85,5.85,0,0,1,3.44-.65,9.81,9.81,0,0,1,3.33.81A10.32,10.32,0,0,1,256.39,14a16.47,16.47,0,0,1,1.29,1.16A8.4,8.4,0,0,1,258.71,16.44ZM176.54,63.31a29.08,29.08,0,0,1,2.23-4.67q1.58-2.8,3.27-5.5,1.9-3.11,4.22-6.32v.1q4.43-6.53,8.55-13.37t7.82-13.38a29.79,29.79,0,0,0-9.6,2.11,52.73,52.73,0,0,0-21.39,16.29,30.69,30.69,0,0,0-3.06,4.56,37.35,37.35,0,0,0-2.49,5,32.24,32.24,0,0,0-1.87,6.13,6.23,6.23,0,0,0,.23,3.7,9.12,9.12,0,0,0,1.49,2.56c.28-.07.89-.17,1.83-.3a17.89,17.89,0,0,1,3.13-.13,8.89,8.89,0,0,1,3.28.76A4.73,4.73,0,0,1,176.54,63.31Z"/><path d="M279.21,39.43a6,6,0,0,1,1.55,1.89,8.77,8.77,0,0,1,.81,2.51,10.64,10.64,0,0,1,0,3.65,16.2,16.2,0,0,1-3.08,6.85,24.18,24.18,0,0,1-5.25,5.06,27.45,27.45,0,0,1-6,3.23A20.25,20.25,0,0,1,261.93,64a14.93,14.93,0,0,1-3.8-.08,6.55,6.55,0,0,1-2.34-.8q-.43,1-.85,2.18l-.69,2.23a12,12,0,0,0-.49,2.65,8.27,8.27,0,0,0,.09,1.35q.1.52.25,1.25a3.88,3.88,0,0,0,.56,1.36,3.48,3.48,0,0,0,3.94,2.06,14.41,14.41,0,0,0,5.23-2.09,38.63,38.63,0,0,0,6.4-5.06,4.92,4.92,0,0,0,.52-.31,2.25,2.25,0,0,1,1.25-.41,1.94,1.94,0,0,1,1,.27,2.53,2.53,0,0,1,1.24,1.52,4.93,4.93,0,0,1-.07,2.24,5.24,5.24,0,0,1-.58,1.4,8.89,8.89,0,0,1-1.21,1.34,10.66,10.66,0,0,1-1.31,1,19.25,19.25,0,0,1-2.62,1.44q-1.15.51-2.61,1.13a11.6,11.6,0,0,1-2.92.81,31.14,31.14,0,0,1-3.39.39,22.92,22.92,0,0,1-3.7-.13l-1.72-.38q-.78-.16-1.61-.38A11.47,11.47,0,0,1,248,76.59a11.9,11.9,0,0,1-2.53-3.15,9,9,0,0,1-1.17-3.5,20.67,20.67,0,0,1-.13-3.86,19.86,19.86,0,0,1,.55-3.64,27.29,27.29,0,0,1,.86-2.86,34.42,34.42,0,0,1,1.7-3.63q1-1.76,1.48-2.59a41.72,41.72,0,0,1,3.37-4.77,49.37,49.37,0,0,1,3.47-3.83,27.07,27.07,0,0,1,10.26-6.22,18.76,18.76,0,0,1,6.78-.94,13.46,13.46,0,0,1,2.4.23q1,.22,2.13.54A6,6,0,0,1,279.21,39.43Zm-14.15,10q-1.26,1.34-2.42,2.79t-2.42,3A31.77,31.77,0,0,0,257.8,59a21.48,21.48,0,0,0,7.26-2.13,19.33,19.33,0,0,0,4.66-3.35,13.61,13.61,0,0,0,2.58-3.42q.79-1.61,1.11-2.44a7.11,7.11,0,0,0,.43-2.18,11.94,11.94,0,0,0-.09-1.67,11.56,11.56,0,0,0-4,1.64A23.45,23.45,0,0,0,265.07,49.42Z"/><path d="M314.08,38.66a6.32,6.32,0,0,1,3.77,4.09,10.77,10.77,0,0,1-.41,5.94q-.32.94-1.12,3t-2.07,4.52q-1.27,2.49-2.85,5.24a42.32,42.32,0,0,1-3.37,5q-.53.62-1.16,1.4a16.93,16.93,0,0,1-1.26,1.4q-.74.83-1.47,1.55a25.16,25.16,0,0,1-2.94,2.48,25.9,25.9,0,0,1-3.25,2.27,31.67,31.67,0,0,1-4.08,2.05,12.4,12.4,0,0,1-4.23,1.06,8.22,8.22,0,0,1-2.81-.34,3.61,3.61,0,0,1-1.66-1.06,3.71,3.71,0,0,1-.67-1,.84.84,0,0,1,.32-1.14,2.7,2.7,0,0,1,.63-.31,9.76,9.76,0,0,0,4.34-1.63,22.91,22.91,0,0,0,3.72-2.89,10,10,0,0,0,1.1-1q.58-.62,1.1-1.24t1.16-1.45a71.62,71.62,0,0,0,4.33-6.95Q303,56.29,304.9,52a52.64,52.64,0,0,0,3.1-9.41,16.83,16.83,0,0,0-5.44,2.93,38,38,0,0,0-5.3,5.06A68.23,68.23,0,0,0,292.31,57q-2.37,3.47-4.38,6.9t-3.59,6.48q-1.59,3.06-2.54,5.24a13.7,13.7,0,0,1-1.21,1.87,7,7,0,0,1-1.1,1.14,3,3,0,0,1-1.83.56l-1.09-.06a4.4,4.4,0,0,1-3.16-2.73,6.22,6.22,0,0,1-.4-1.93q0-1,0-1.82A36.13,36.13,0,0,1,274.74,65q1.44-4.31,3.3-8.57t3.76-8q1.91-3.79,3.17-6.18.74-1.25,1.37-2.44a20.91,20.91,0,0,1,1.06-1.82q2.43-4,5.07-8.14a64.12,64.12,0,0,1,5.32-7.2,22.59,22.59,0,0,1,5.46-4.75,7,7,0,0,1,5.58-.89,6,6,0,0,1,1,.32,8,8,0,0,1,2.07,1.16,8,8,0,0,1,1.5,1.84,3.35,3.35,0,0,1,.34,2.56,6,6,0,0,1-.43,1.35,5.36,5.36,0,0,1-.79,1.4,14.18,14.18,0,0,1-1.42,1.6,58.8,58.8,0,0,0-4.41,4.08,69,69,0,0,0-5.52,6.36q-2.9,3.73-6,8.34a88.94,88.94,0,0,0-5.71,10q1.69-2.59,3.69-5.23a58.7,58.7,0,0,1,4.21-5,49.85,49.85,0,0,1,4.46-4.19,19.11,19.11,0,0,1,4.66-2.88,13.71,13.71,0,0,1,2.4-.61,10.92,10.92,0,0,1,2.4-.14A7.77,7.77,0,0,1,314.08,38.66Z"/><path class="cls-1" d="M355.14,24.79l-.08,10.71-25.32-.2-.09,11.8,24.07.19L353.62,58l-24.07-.19-.17,21.41-12.19-.1.43-54.62Z"/><path class="cls-1" d="M382.31,47.9q-5.24,0-7.84,3.65t-2.66,9.79l-.14,18.21-11.72-.09.33-42L372,37.5l0,5.55a19.71,19.71,0,0,1,5.7-4.33,15.4,15.4,0,0,1,6.93-1.82v11Z"/><path class="cls-1" d="M424.61,73.87a23.5,23.5,0,0,1-16.74,6.59q-9.57-.08-15.78-6T386,58.56q.08-9.92,6.49-15.74a21.48,21.48,0,0,1,15.09-5.74,21.76,21.76,0,0,1,14.69,5.35q6,5.29,5.94,14.43l0,6.25-30.63-.24a8.36,8.36,0,0,0,3.55,5.66,11.5,11.5,0,0,0,6.86,2.24,13.49,13.49,0,0,0,10.19-4.06Zm-11.06-25a8.88,8.88,0,0,0-5.88-2.08,10.56,10.56,0,0,0-6.39,2.06,8.07,8.07,0,0,0-3.41,5.68l18.44.15A8.33,8.33,0,0,0,413.56,48.85Z"/><path class="cls-1" d="M469,74.22a23.51,23.51,0,0,1-16.74,6.59q-9.57-.08-15.78-6t-6.13-15.87q.08-9.92,6.49-15.74a21.48,21.48,0,0,1,15.09-5.74,21.76,21.76,0,0,1,14.69,5.35q6,5.29,5.94,14.43l0,6.25-30.63-.24a8.35,8.35,0,0,0,3.55,5.66,11.5,11.5,0,0,0,6.86,2.24,13.49,13.49,0,0,0,10.19-4.06Zm-11.06-25a8.88,8.88,0,0,0-5.88-2.08,10.56,10.56,0,0,0-6.39,2.06,8.07,8.07,0,0,0-3.41,5.68l18.44.15A8.33,8.33,0,0,0,457.95,49.2Z"/><path class="cls-1" d="M488.65,80.47l-11.72-.09.46-58,11.72.09Z"/><path class="cls-1" d="M531.55,80.81l-11-.09,0-5.08a13.81,13.81,0,0,1-11.26,5.62,16.67,16.67,0,0,1-11.18-4A12.88,12.88,0,0,1,493.68,67q.05-6.45,4.77-9.61t12.84-3.1l8.75.07v-.23q.05-6.72-7.06-6.78a19.24,19.24,0,0,0-6.46,1.16,21,21,0,0,0-5.77,3l-5.18-7.62a31.36,31.36,0,0,1,19-5.87Q522.2,38,527,41.86T531.76,54ZM519.87,64.7l0-2-7.34-.06q-7-.06-7.07,4.32a4,4,0,0,0,1.65,3.49,8.12,8.12,0,0,0,4.8,1.25,8.55,8.55,0,0,0,5.53-1.87A6.23,6.23,0,0,0,519.87,64.7Z"/><path class="cls-1" d="M550.25,57.52,550.07,81l-11.72-.09.33-42,11.72.09,0,4.69q5.35-5.35,12-5.3a14.81,14.81,0,0,1,11.1,4.78q4.46,4.72,4.39,12.54l-.2,25.55-11.72-.09.19-23.76q.08-9.69-7-9.75a8.53,8.53,0,0,0-6.16,2.49Q550.29,52.59,550.25,57.52Z"/><path class="cls-1" d="M604.61,71.62q5.86,0,10.6-5.78l6.89,7.87q-8.2,8.38-17.65,8.3a22.79,22.79,0,0,1-15.93-6.1q-6.48-6-6.4-15.68t6.73-15.65a22.4,22.4,0,0,1,15.72-5.93,24.42,24.42,0,0,1,9.17,1.95,23.23,23.23,0,0,1,8.12,5.61l-6.16,7.92a13.88,13.88,0,0,0-4.93-3.79A14,14,0,0,0,604.95,49a11.41,11.41,0,0,0-8,2.95,10.71,10.71,0,0,0-3.39,8.34q0,5.35,3.26,8.35A11.29,11.29,0,0,0,604.61,71.62Z"/><path class="cls-1" d="M662.41,75.75a23.5,23.5,0,0,1-16.74,6.59q-9.57-.08-15.78-6t-6.13-15.87q.08-9.92,6.49-15.74A21.49,21.49,0,0,1,645.35,39,21.76,21.76,0,0,1,660,44.32q6,5.29,5.94,14.43l0,6.25-30.63-.24a8.35,8.35,0,0,0,3.55,5.66,11.5,11.5,0,0,0,6.86,2.24,13.48,13.48,0,0,0,10.19-4.06Zm-11.06-25a8.88,8.88,0,0,0-5.88-2.08,10.56,10.56,0,0,0-6.39,2.06,8.07,8.07,0,0,0-3.41,5.68l18.44.15A8.33,8.33,0,0,0,651.36,50.74Z"/><path class="cls-1" d="M692.7,50.36q-5.24,0-7.85,3.65T682.2,63.8L682.06,82l-11.72-.09.33-42,11.72.09,0,5.55a19.7,19.7,0,0,1,5.7-4.33A15.41,15.41,0,0,1,695,39.36v11Z"/><path d="M247.38,109.91l.2-.49a4.17,4.17,0,0,1,.23-.46l8.73-15.44a.57.57,0,0,1,.25-.25,1,1,0,0,1,.35,0h1.12v22.23h-1.41V96.5a8.47,8.47,0,0,1,0-.86l-8.75,15.54a.69.69,0,0,1-.63.41h-.25a.71.71,0,0,1-.63-.41l-9-15.55a8.62,8.62,0,0,1,0,.88v18.95h-1.4V93.21h1.1a1.09,1.09,0,0,1,.35,0,.56.56,0,0,1,.26.25L247,109A6.45,6.45,0,0,1,247.38,109.91Z"/><path d="M273.28,115.44a.54.54,0,0,1-.58-.44l-.22-2a16.48,16.48,0,0,1-1.28,1.13,7.7,7.7,0,0,1-1.33.85,6.54,6.54,0,0,1-1.49.53,8,8,0,0,1-1.76.18,5.18,5.18,0,0,1-1.56-.24,3.84,3.84,0,0,1-1.33-.72,3.54,3.54,0,0,1-.94-1.25,4.33,4.33,0,0,1-.35-1.83,3.25,3.25,0,0,1,.57-1.84,4.64,4.64,0,0,1,1.77-1.48,11.66,11.66,0,0,1,3.09-1,26.91,26.91,0,0,1,4.55-.44v-1.63a5.23,5.23,0,0,0-.93-3.34,3.34,3.34,0,0,0-2.77-1.17,5.23,5.23,0,0,0-1.92.31,6.82,6.82,0,0,0-1.34.69,8.48,8.48,0,0,0-.9.69,1,1,0,0,1-.58.31.51.51,0,0,1-.47-.28l-.27-.46a9.08,9.08,0,0,1,2.58-1.85,7.19,7.19,0,0,1,3.06-.63,5.59,5.59,0,0,1,2.2.4,4.07,4.07,0,0,1,1.56,1.15,5,5,0,0,1,.94,1.81,8.33,8.33,0,0,1,.31,2.36v10.18Zm-6.28-.83a6.7,6.7,0,0,0,1.67-.2,6.21,6.21,0,0,0,1.41-.55,6.89,6.89,0,0,0,1.22-.84q.57-.49,1.12-1.05V107.9a27.88,27.88,0,0,0-3.84.34,11.07,11.07,0,0,0-2.65.75,3.9,3.9,0,0,0-1.54,1.12,2.39,2.39,0,0,0-.5,1.48,3.28,3.28,0,0,0,.26,1.36,2.61,2.61,0,0,0,1.67,1.48A4,4,0,0,0,267,114.61Z"/><path d="M277.8,115.44V99.81h.79a.55.55,0,0,1,.38.11.54.54,0,0,1,.13.38l.13,3.3a7.44,7.44,0,0,1,2-3,4.59,4.59,0,0,1,3.09-1.08,5.36,5.36,0,0,1,1.3.15,5,5,0,0,1,1.13.43l-.2,1a.28.28,0,0,1-.31.25.85.85,0,0,1-.27-.06l-.43-.14a5.19,5.19,0,0,0-.64-.14,5.34,5.34,0,0,0-.86-.06,4,4,0,0,0-2.91,1.1,7.86,7.86,0,0,0-1.85,3.17v10.16Z"/><path d="M291.14,92.58v13.93h.72a1.36,1.36,0,0,0,.42-.06,1.14,1.14,0,0,0,.43-.3l6.27-6a1.89,1.89,0,0,1,.35-.28.88.88,0,0,1,.46-.11h1.32l-6.9,6.55-.3.29a1.5,1.5,0,0,1-.31.23,1.62,1.62,0,0,1,.42.3l.36.38,7.24,7.89h-1.3a.86.86,0,0,1-.39-.09,1.22,1.22,0,0,1-.35-.27L293,108a1.7,1.7,0,0,0-.49-.38,1.73,1.73,0,0,0-.69-.1h-.71v7.89h-1.49V92.58Z"/><path d="M309.11,99.56a6.44,6.44,0,0,1,2.44.46,5.49,5.49,0,0,1,1.95,1.33,6.12,6.12,0,0,1,1.29,2.14,8.52,8.52,0,0,1,.46,2.92.78.78,0,0,1-.1.47.39.39,0,0,1-.32.13H303.55v.3a10.6,10.6,0,0,0,.41,3.09,6.34,6.34,0,0,0,1.16,2.24,4.79,4.79,0,0,0,1.82,1.36,6,6,0,0,0,2.39.46,7.14,7.14,0,0,0,2-.26,7.6,7.6,0,0,0,1.45-.58,8,8,0,0,0,.94-.58,1.06,1.06,0,0,1,.5-.26.36.36,0,0,1,.31.16l.41.5a4.28,4.28,0,0,1-1,.88,7.09,7.09,0,0,1-1.38.7,10,10,0,0,1-1.63.46,9,9,0,0,1-1.75.17,7.43,7.43,0,0,1-2.92-.56,6.21,6.21,0,0,1-2.26-1.63,7.44,7.44,0,0,1-1.46-2.62,11.18,11.18,0,0,1-.52-3.54,9.66,9.66,0,0,1,.48-3.1,7.1,7.1,0,0,1,1.38-2.45,6.3,6.3,0,0,1,2.21-1.61A7.28,7.28,0,0,1,309.11,99.56Zm0,1.12a5.86,5.86,0,0,0-2.16.38,4.74,4.74,0,0,0-1.66,1.08,5.52,5.52,0,0,0-1.13,1.7,7.72,7.72,0,0,0-.57,2.21H313.9a6.87,6.87,0,0,0-.35-2.25,4.82,4.82,0,0,0-1-1.69,4.21,4.21,0,0,0-1.51-1.06A5,5,0,0,0,309.14,100.67Z"/><path d="M322.75,115.69a3.33,3.33,0,0,1-2.47-.88,3.7,3.7,0,0,1-.88-2.72V101.41h-2.25a.42.42,0,0,1-.28-.09.33.33,0,0,1-.11-.27v-.58l2.67-.19.37-5.59a.44.44,0,0,1,.12-.25.35.35,0,0,1,.27-.11h.7v6h4.92v1.12h-4.92V112a3.32,3.32,0,0,0,.17,1.11,2.06,2.06,0,0,0,.46.76,1.78,1.78,0,0,0,.68.44,2.49,2.49,0,0,0,.85.14,2.59,2.59,0,0,0,1-.17,4,4,0,0,0,.71-.36,4.55,4.55,0,0,0,.49-.36.53.53,0,0,1,.3-.17.34.34,0,0,1,.25.16l.41.66a4.36,4.36,0,0,1-1.52,1.06A4.73,4.73,0,0,1,322.75,115.69Z"/><path d="M331.5,94.42a1.19,1.19,0,0,1-.12.53,1.58,1.58,0,0,1-.31.43,1.43,1.43,0,0,1-.44.3,1.35,1.35,0,0,1-1.07,0,1.43,1.43,0,0,1-.44-.3,1.45,1.45,0,0,1-.3-.43,1.26,1.26,0,0,1-.11-.53,1.38,1.38,0,0,1,.11-.54,1.4,1.4,0,0,1,.3-.45,1.43,1.43,0,0,1,.44-.3,1.35,1.35,0,0,1,1.07,0,1.43,1.43,0,0,1,.44.3,1.52,1.52,0,0,1,.31.45A1.29,1.29,0,0,1,331.5,94.42Zm-.66,5.39v15.63h-1.49V99.81Z"/><path d="M335.58,115.44V99.81h.82a.43.43,0,0,1,.47.39l.14,2.36a8.76,8.76,0,0,1,2.49-2.18,6.19,6.19,0,0,1,3.17-.82,5.88,5.88,0,0,1,2.27.41,4.17,4.17,0,0,1,1.63,1.18,5.21,5.21,0,0,1,1,1.85,8.4,8.4,0,0,1,.33,2.45v10h-1.49v-10a5.36,5.36,0,0,0-1-3.45,3.72,3.72,0,0,0-3.08-1.25,5.45,5.45,0,0,0-2.86.79,8.32,8.32,0,0,0-2.36,2.18v11.72Z"/><path d="M356.94,99.54a6.81,6.81,0,0,1,1.89.25,5.69,5.69,0,0,1,1.56.71h4V101q0,.39-.44.42l-2.37.17a4.57,4.57,0,0,1,.68,1.34,5.26,5.26,0,0,1,.24,1.59,5,5,0,0,1-.41,2.05,4.56,4.56,0,0,1-1.14,1.57,5.21,5.21,0,0,1-1.75,1,6.73,6.73,0,0,1-2.26.36,7,7,0,0,1-2.45-.41,3.25,3.25,0,0,0-1,.9,1.72,1.72,0,0,0-.38,1,1.23,1.23,0,0,0,.47,1,3.08,3.08,0,0,0,1.25.53,11.14,11.14,0,0,0,1.77.21l2,.1q1,.06,2,.2a6.47,6.47,0,0,1,1.77.5,3.13,3.13,0,0,1,1.25,1,2.77,2.77,0,0,1,.47,1.69,3.86,3.86,0,0,1-.49,1.87,5,5,0,0,1-1.41,1.59,7.42,7.42,0,0,1-2.22,1.11,9.59,9.59,0,0,1-2.92.42,11.07,11.07,0,0,1-2.89-.34,6.88,6.88,0,0,1-2.08-.91,4,4,0,0,1-1.26-1.33,3.22,3.22,0,0,1-.42-1.6,3.06,3.06,0,0,1,.82-2.14,5.27,5.27,0,0,1,2.25-1.38,2.94,2.94,0,0,1-1.25-.77,2,2,0,0,1-.46-1.4,2.1,2.1,0,0,1,.13-.69,2.87,2.87,0,0,1,.38-.71,4,4,0,0,1,.6-.67,4.24,4.24,0,0,1,.82-.57,4.66,4.66,0,0,1-1.74-1.71,4.88,4.88,0,0,1-.62-2.5,5.08,5.08,0,0,1,.4-2,4.54,4.54,0,0,1,1.13-1.58,5.11,5.11,0,0,1,1.77-1A6.94,6.94,0,0,1,356.94,99.54Zm5.8,17a1.76,1.76,0,0,0-.38-1.19,2.54,2.54,0,0,0-1-.7,6.14,6.14,0,0,0-1.48-.35q-.84-.1-1.76-.15l-1.85-.09a14,14,0,0,1-1.73-.19,7.48,7.48,0,0,0-1.11.54,4,4,0,0,0-.87.69,3,3,0,0,0-.57.85,2.48,2.48,0,0,0-.2,1,2.45,2.45,0,0,0,.35,1.28,3.12,3.12,0,0,0,1,1,5.78,5.78,0,0,0,1.67.68,9.3,9.3,0,0,0,2.28.25,8.84,8.84,0,0,0,2.22-.27,6.21,6.21,0,0,0,1.79-.75,3.85,3.85,0,0,0,1.19-1.16A2.69,2.69,0,0,0,362.74,116.49Zm-5.8-8a5.14,5.14,0,0,0,1.79-.29,3.72,3.72,0,0,0,1.32-.81,3.39,3.39,0,0,0,.81-1.24,4.48,4.48,0,0,0,.27-1.6,4.42,4.42,0,0,0-.28-1.61,3.4,3.4,0,0,0-.82-1.25,3.72,3.72,0,0,0-1.32-.8,5.15,5.15,0,0,0-1.77-.28,5.22,5.22,0,0,0-1.78.28,3.71,3.71,0,0,0-1.33.8A3.4,3.4,0,0,0,353,103a4.43,4.43,0,0,0-.28,1.61,4.36,4.36,0,0,0,.28,1.6,3.42,3.42,0,0,0,.82,1.24,3.8,3.8,0,0,0,1.33.81A5.09,5.09,0,0,0,356.94,108.53Z"/><path d="M391.6,104.32a13.15,13.15,0,0,1-.77,4.63,10,10,0,0,1-2.17,3.5,9.39,9.39,0,0,1-3.35,2.22,11.66,11.66,0,0,1-4.32.77h-8.11V93.21H381a11.67,11.67,0,0,1,4.32.77,9.4,9.4,0,0,1,3.35,2.22,10,10,0,0,1,2.17,3.5A13.11,13.11,0,0,1,391.6,104.32Zm-1.67,0a12.4,12.4,0,0,0-.64-4.15,8.7,8.7,0,0,0-1.81-3.08,7.71,7.71,0,0,0-2.82-1.92,9.78,9.78,0,0,0-3.66-.66h-6.49v19.62H381a9.77,9.77,0,0,0,3.66-.66,7.7,7.7,0,0,0,2.82-1.92,8.7,8.7,0,0,0,1.81-3.08A12.45,12.45,0,0,0,389.93,104.32Z"/><path d="M397.82,94.42a1.19,1.19,0,0,1-.12.53,1.58,1.58,0,0,1-.31.43,1.43,1.43,0,0,1-.44.3,1.35,1.35,0,0,1-1.07,0,1.43,1.43,0,0,1-.44-.3,1.45,1.45,0,0,1-.3-.43,1.26,1.26,0,0,1-.11-.53,1.38,1.38,0,0,1,.11-.54,1.4,1.4,0,0,1,.3-.45,1.43,1.43,0,0,1,.44-.3,1.35,1.35,0,0,1,1.07,0,1.43,1.43,0,0,1,.44.3,1.52,1.52,0,0,1,.31.45A1.29,1.29,0,0,1,397.82,94.42Zm-.66,5.39v15.63h-1.49V99.81Z"/><path d="M407.06,99.54a6.81,6.81,0,0,1,1.89.25,5.69,5.69,0,0,1,1.56.71h4V101q0,.39-.44.42l-2.37.17a4.57,4.57,0,0,1,.68,1.34,5.26,5.26,0,0,1,.24,1.59,5,5,0,0,1-.41,2.05,4.56,4.56,0,0,1-1.14,1.57,5.21,5.21,0,0,1-1.75,1,6.73,6.73,0,0,1-2.26.36,7,7,0,0,1-2.45-.41,3.25,3.25,0,0,0-1,.9,1.72,1.72,0,0,0-.38,1,1.23,1.23,0,0,0,.47,1,3.08,3.08,0,0,0,1.25.53,11.14,11.14,0,0,0,1.77.21l2,.1q1,.06,2,.2a6.47,6.47,0,0,1,1.77.5,3.13,3.13,0,0,1,1.25,1,2.77,2.77,0,0,1,.47,1.69,3.86,3.86,0,0,1-.49,1.87,5,5,0,0,1-1.41,1.59,7.42,7.42,0,0,1-2.22,1.11,9.59,9.59,0,0,1-2.92.42,11.07,11.07,0,0,1-2.89-.34,6.88,6.88,0,0,1-2.08-.91,4,4,0,0,1-1.26-1.33,3.22,3.22,0,0,1-.42-1.6,3.06,3.06,0,0,1,.82-2.14,5.27,5.27,0,0,1,2.25-1.38,2.94,2.94,0,0,1-1.25-.77,2,2,0,0,1-.46-1.4,2.1,2.1,0,0,1,.13-.69,2.87,2.87,0,0,1,.38-.71,4,4,0,0,1,.6-.67,4.24,4.24,0,0,1,.82-.57,4.66,4.66,0,0,1-1.74-1.71,4.88,4.88,0,0,1-.62-2.5,5.08,5.08,0,0,1,.4-2,4.54,4.54,0,0,1,1.13-1.58,5.11,5.11,0,0,1,1.77-1A6.94,6.94,0,0,1,407.06,99.54Zm5.8,17a1.76,1.76,0,0,0-.38-1.19,2.54,2.54,0,0,0-1-.7,6.14,6.14,0,0,0-1.48-.35q-.84-.1-1.76-.15l-1.85-.09a14,14,0,0,1-1.73-.19,7.48,7.48,0,0,0-1.11.54,4,4,0,0,0-.87.69,3,3,0,0,0-.57.85,2.48,2.48,0,0,0-.2,1,2.45,2.45,0,0,0,.35,1.28,3.12,3.12,0,0,0,1,1,5.78,5.78,0,0,0,1.67.68,9.3,9.3,0,0,0,2.28.25,8.84,8.84,0,0,0,2.22-.27,6.21,6.21,0,0,0,1.79-.75,3.85,3.85,0,0,0,1.19-1.16A2.69,2.69,0,0,0,412.85,116.49Zm-5.8-8a5.14,5.14,0,0,0,1.79-.29,3.72,3.72,0,0,0,1.32-.81,3.39,3.39,0,0,0,.81-1.24,4.48,4.48,0,0,0,.27-1.6A4.42,4.42,0,0,0,411,103a3.4,3.4,0,0,0-.82-1.25,3.72,3.72,0,0,0-1.32-.8,5.15,5.15,0,0,0-1.77-.28,5.22,5.22,0,0,0-1.78.28,3.71,3.71,0,0,0-1.33.8,3.4,3.4,0,0,0-.82,1.25,4.43,4.43,0,0,0-.28,1.61,4.36,4.36,0,0,0,.28,1.6,3.42,3.42,0,0,0,.82,1.24,3.8,3.8,0,0,0,1.33.81A5.09,5.09,0,0,0,407.06,108.53Z"/><path d="M419.56,94.42a1.19,1.19,0,0,1-.12.53,1.58,1.58,0,0,1-.31.43,1.43,1.43,0,0,1-.44.3,1.35,1.35,0,0,1-1.07,0,1.43,1.43,0,0,1-.44-.3,1.45,1.45,0,0,1-.3-.43,1.26,1.26,0,0,1-.11-.53,1.38,1.38,0,0,1,.11-.54,1.4,1.4,0,0,1,.3-.45,1.43,1.43,0,0,1,.44-.3,1.35,1.35,0,0,1,1.07,0,1.43,1.43,0,0,1,.44.3,1.52,1.52,0,0,1,.31.45A1.29,1.29,0,0,1,419.56,94.42Zm-.66,5.39v15.63h-1.49V99.81Z"/><path d="M427.9,115.69a3.33,3.33,0,0,1-2.47-.88,3.7,3.7,0,0,1-.88-2.72V101.41h-2.25a.42.42,0,0,1-.28-.09.33.33,0,0,1-.11-.27v-.58l2.67-.19.37-5.59a.44.44,0,0,1,.12-.25.35.35,0,0,1,.27-.11h.7v6H431v1.12H426V112a3.32,3.32,0,0,0,.17,1.11,2.06,2.06,0,0,0,.46.76,1.78,1.78,0,0,0,.68.44,2.49,2.49,0,0,0,.85.14,2.59,2.59,0,0,0,1-.17,4,4,0,0,0,.71-.36,4.55,4.55,0,0,0,.49-.36.53.53,0,0,1,.3-.17.34.34,0,0,1,.25.16l.41.66a4.36,4.36,0,0,1-1.52,1.06A4.73,4.73,0,0,1,427.9,115.69Z"/><path d="M444,115.44a.54.54,0,0,1-.58-.44l-.22-2a16.13,16.13,0,0,1-1.28,1.13,7.67,7.67,0,0,1-1.33.85,6.56,6.56,0,0,1-1.49.53,8,8,0,0,1-1.76.18,5.17,5.17,0,0,1-1.55-.24,3.82,3.82,0,0,1-1.34-.72,3.54,3.54,0,0,1-.94-1.25,4.33,4.33,0,0,1-.35-1.83,3.25,3.25,0,0,1,.57-1.84,4.65,4.65,0,0,1,1.77-1.48,11.65,11.65,0,0,1,3.09-1,26.93,26.93,0,0,1,4.55-.44v-1.63a5.23,5.23,0,0,0-.94-3.34,3.33,3.33,0,0,0-2.77-1.17,5.24,5.24,0,0,0-1.93.31,6.75,6.75,0,0,0-1.34.69,8.51,8.51,0,0,0-.9.69,1,1,0,0,1-.58.31.51.51,0,0,1-.47-.28L434,102a9.07,9.07,0,0,1,2.58-1.85,7.18,7.18,0,0,1,3.06-.63,5.59,5.59,0,0,1,2.2.4,4.06,4.06,0,0,1,1.56,1.15,5,5,0,0,1,.94,1.81,8.33,8.33,0,0,1,.31,2.36v10.18Zm-6.28-.83a6.69,6.69,0,0,0,1.67-.2,6.2,6.2,0,0,0,1.41-.55,6.86,6.86,0,0,0,1.22-.84q.57-.49,1.12-1.05V107.9a27.9,27.9,0,0,0-3.84.34,11.07,11.07,0,0,0-2.65.75,3.89,3.89,0,0,0-1.54,1.12,2.39,2.39,0,0,0-.5,1.48,3.29,3.29,0,0,0,.26,1.36,2.61,2.61,0,0,0,1.67,1.48A4,4,0,0,0,437.75,114.61Z"/><path d="M450.49,92.58v22.86H449V92.58Z"/><path d="M468.32,93a5.53,5.53,0,0,1,2,.36,5.41,5.41,0,0,1,1.64,1,4.79,4.79,0,0,1,1.12,1.42,4,4,0,0,1,.45,1.69l-.39.09a2.83,2.83,0,0,1-.57.08.35.35,0,0,1-.24-.09.52.52,0,0,1-.16-.27,5.18,5.18,0,0,0-.38-.94,4.08,4.08,0,0,0-.72-1,4,4,0,0,0-1.14-.8,3.67,3.67,0,0,0-1.61-.33,4.83,4.83,0,0,0-1.71.29,3.85,3.85,0,0,0-1.32.82,3.74,3.74,0,0,0-.86,1.25,4,4,0,0,0-.31,1.59,5,5,0,0,0,.66,2.47,11.61,11.61,0,0,0,2,2.53l7,6.91a11.48,11.48,0,0,0,1.67-4.73.68.68,0,0,1,.13-.32.34.34,0,0,1,.28-.12h.86a10.18,10.18,0,0,1-.56,3,12.22,12.22,0,0,1-1.5,3l4.68,4.59H478a1.44,1.44,0,0,1-.46-.06,1.26,1.26,0,0,1-.42-.28l-3.22-3.16a12.41,12.41,0,0,1-1.55,1.51,10,10,0,0,1-1.84,1.19,10.36,10.36,0,0,1-2.11.78,9.66,9.66,0,0,1-2.36.28,7.14,7.14,0,0,1-2.33-.39,6.33,6.33,0,0,1-2-1.15,5.86,5.86,0,0,1-1.46-1.87,5.52,5.52,0,0,1-.56-2.52,5.8,5.8,0,0,1,.41-2.16,7,7,0,0,1,1.12-1.89,8.28,8.28,0,0,1,1.68-1.53,9.58,9.58,0,0,1,2.1-1.1,10.45,10.45,0,0,1-1.67-2.44,5.88,5.88,0,0,1-.56-2.54,5.12,5.12,0,0,1,.4-2,4.78,4.78,0,0,1,1.14-1.63A5.34,5.34,0,0,1,466,93.35,6.42,6.42,0,0,1,468.32,93Zm-7.16,16.7a4.53,4.53,0,0,0,.46,2.1,4.69,4.69,0,0,0,1.2,1.5,5.08,5.08,0,0,0,1.64.9,5.65,5.65,0,0,0,1.78.3,8.37,8.37,0,0,0,2.08-.25,8.52,8.52,0,0,0,1.84-.7,8.38,8.38,0,0,0,1.57-1.06A10.37,10.37,0,0,0,473,111.1L465.84,104a1.41,1.41,0,0,1-.17-.17,9.41,9.41,0,0,0-1.88,1.05,7.06,7.06,0,0,0-1.42,1.36,5.89,5.89,0,0,0-.9,1.61A5.21,5.21,0,0,0,461.16,109.66Z"/><path d="M506.2,104.32a13.16,13.16,0,0,1-.77,4.63,10,10,0,0,1-2.17,3.5,9.4,9.4,0,0,1-3.35,2.22,11.66,11.66,0,0,1-4.32.77h-8.11V93.21h8.11a11.67,11.67,0,0,1,4.32.77,9.4,9.4,0,0,1,3.35,2.22,10,10,0,0,1,2.17,3.5A13.12,13.12,0,0,1,506.2,104.32Zm-1.67,0a12.4,12.4,0,0,0-.64-4.15,8.71,8.71,0,0,0-1.81-3.08,7.71,7.71,0,0,0-2.82-1.92,9.78,9.78,0,0,0-3.66-.66H489.1v19.62h6.49a9.77,9.77,0,0,0,3.66-.66,7.7,7.7,0,0,0,2.82-1.92,8.71,8.71,0,0,0,1.81-3.08A12.45,12.45,0,0,0,504.53,104.32Z"/><path d="M515.71,99.56a6.44,6.44,0,0,1,2.44.46,5.49,5.49,0,0,1,1.95,1.33,6.12,6.12,0,0,1,1.29,2.14,8.5,8.5,0,0,1,.46,2.92.78.78,0,0,1-.1.47.39.39,0,0,1-.32.13H510.15v.3a10.6,10.6,0,0,0,.41,3.09,6.35,6.35,0,0,0,1.16,2.24,4.79,4.79,0,0,0,1.82,1.36,6,6,0,0,0,2.39.46,7.14,7.14,0,0,0,2-.26,7.62,7.62,0,0,0,1.45-.58,8,8,0,0,0,.93-.58,1.06,1.06,0,0,1,.5-.26.36.36,0,0,1,.31.16l.41.5a4.28,4.28,0,0,1-1,.88,7.1,7.1,0,0,1-1.38.7,10,10,0,0,1-1.63.46,9,9,0,0,1-1.75.17,7.44,7.44,0,0,1-2.92-.56,6.21,6.21,0,0,1-2.26-1.63,7.44,7.44,0,0,1-1.46-2.62,11.19,11.19,0,0,1-.52-3.54,9.66,9.66,0,0,1,.48-3.1,7.1,7.1,0,0,1,1.38-2.45,6.29,6.29,0,0,1,2.21-1.61A7.28,7.28,0,0,1,515.71,99.56Zm0,1.12a5.86,5.86,0,0,0-2.17.38,4.73,4.73,0,0,0-1.65,1.08,5.53,5.53,0,0,0-1.13,1.7,7.73,7.73,0,0,0-.57,2.21h10.29a6.86,6.86,0,0,0-.35-2.25,4.82,4.82,0,0,0-1-1.69,4.2,4.2,0,0,0-1.51-1.06A5,5,0,0,0,515.74,100.67Z"/><path d="M533.7,101.76a.36.36,0,0,1-.35.22.85.85,0,0,1-.45-.2,7.2,7.2,0,0,0-.72-.44,5.9,5.9,0,0,0-1.1-.44,5.59,5.59,0,0,0-1.59-.2,4.68,4.68,0,0,0-1.55.24,3.84,3.84,0,0,0-1.19.65,2.94,2.94,0,0,0-.77.95,2.47,2.47,0,0,0-.28,1.14,1.94,1.94,0,0,0,.38,1.22,3.26,3.26,0,0,0,1,.83,7.59,7.59,0,0,0,1.39.6l1.59.5q.82.25,1.59.56a6,6,0,0,1,1.39.76,3.6,3.6,0,0,1,1,1.12,3.19,3.19,0,0,1,.38,1.6,4.86,4.86,0,0,1-.37,1.9,4.32,4.32,0,0,1-1.07,1.52,5.12,5.12,0,0,1-1.72,1,6.69,6.69,0,0,1-2.33.38,7,7,0,0,1-2.84-.53,8,8,0,0,1-2.14-1.37l.36-.53a.6.6,0,0,1,.17-.19.48.48,0,0,1,.27-.06.87.87,0,0,1,.5.25,6.24,6.24,0,0,0,.78.54,6.42,6.42,0,0,0,1.19.54,5.38,5.38,0,0,0,1.77.25,5.08,5.08,0,0,0,1.74-.27,3.63,3.63,0,0,0,1.26-.75,3.11,3.11,0,0,0,.76-1.11,3.52,3.52,0,0,0,.26-1.34,2.16,2.16,0,0,0-.38-1.3,3.22,3.22,0,0,0-1-.88,6.89,6.89,0,0,0-1.39-.61l-1.6-.5q-.83-.25-1.6-.55a5.78,5.78,0,0,1-1.39-.75,3.63,3.63,0,0,1-1-1.11,3.2,3.2,0,0,1-.38-1.63,3.73,3.73,0,0,1,.36-1.6,4.06,4.06,0,0,1,1-1.35,5.06,5.06,0,0,1,1.63-.93,6.32,6.32,0,0,1,2.15-.35A7.22,7.22,0,0,1,532,100a6.2,6.2,0,0,1,2,1.27Z"/><path d="M540.41,94.42a1.2,1.2,0,0,1-.12.53,1.59,1.59,0,0,1-.31.43,1.42,1.42,0,0,1-.44.3,1.35,1.35,0,0,1-1.07,0,1.43,1.43,0,0,1-.74-.73,1.25,1.25,0,0,1-.11-.53,1.36,1.36,0,0,1,.11-.54,1.38,1.38,0,0,1,.3-.45,1.42,1.42,0,0,1,.44-.3,1.35,1.35,0,0,1,1.07,0,1.42,1.42,0,0,1,.44.3,1.52,1.52,0,0,1,.31.45A1.3,1.3,0,0,1,540.41,94.42Zm-.66,5.39v15.63h-1.49V99.81Z"/><path d="M549.65,99.54a6.82,6.82,0,0,1,1.89.25,5.69,5.69,0,0,1,1.56.71h4V101q0,.39-.44.42l-2.37.17A4.58,4.58,0,0,1,555,103a5.29,5.29,0,0,1,.24,1.59,5,5,0,0,1-.41,2.05,4.56,4.56,0,0,1-1.14,1.57,5.19,5.19,0,0,1-1.75,1,6.74,6.74,0,0,1-2.26.36,7,7,0,0,1-2.45-.41,3.24,3.24,0,0,0-1,.9,1.72,1.72,0,0,0-.38,1,1.23,1.23,0,0,0,.47,1,3.07,3.07,0,0,0,1.25.53,11.15,11.15,0,0,0,1.78.21l2,.1q1,.06,2,.2a6.48,6.48,0,0,1,1.78.5,3.13,3.13,0,0,1,1.25,1,2.77,2.77,0,0,1,.47,1.69,3.87,3.87,0,0,1-.49,1.87,5,5,0,0,1-1.41,1.59,7.41,7.41,0,0,1-2.22,1.11,9.59,9.59,0,0,1-2.92.42,11.07,11.07,0,0,1-2.89-.34,6.87,6.87,0,0,1-2.08-.91,4,4,0,0,1-1.26-1.33,3.22,3.22,0,0,1-.42-1.6,3.06,3.06,0,0,1,.82-2.14,5.26,5.26,0,0,1,2.25-1.38,3,3,0,0,1-1.25-.77,2,2,0,0,1-.46-1.4,2.1,2.1,0,0,1,.13-.69A2.82,2.82,0,0,1,545,110a4,4,0,0,1,.6-.67,4.24,4.24,0,0,1,.82-.57,4.66,4.66,0,0,1-1.74-1.71,4.88,4.88,0,0,1-.62-2.5,5.07,5.07,0,0,1,.4-2,4.54,4.54,0,0,1,1.13-1.58,5.11,5.11,0,0,1,1.77-1A6.93,6.93,0,0,1,549.65,99.54Zm5.8,17a1.75,1.75,0,0,0-.38-1.19,2.54,2.54,0,0,0-1-.7,6.13,6.13,0,0,0-1.48-.35q-.84-.1-1.76-.15l-1.85-.09a14,14,0,0,1-1.73-.19,7.48,7.48,0,0,0-1.11.54,4,4,0,0,0-.87.69,3,3,0,0,0-.57.85,2.47,2.47,0,0,0-.2,1,2.44,2.44,0,0,0,.35,1.28,3.12,3.12,0,0,0,1,1,5.79,5.79,0,0,0,1.67.68,9.29,9.29,0,0,0,2.28.25,8.84,8.84,0,0,0,2.22-.27,6.2,6.2,0,0,0,1.79-.75A3.86,3.86,0,0,0,555,118,2.69,2.69,0,0,0,555.44,116.49Zm-5.8-8a5.14,5.14,0,0,0,1.79-.29,3.71,3.71,0,0,0,1.32-.81,3.38,3.38,0,0,0,.81-1.24,4.49,4.49,0,0,0,.27-1.6,4.43,4.43,0,0,0-.28-1.61,3.41,3.41,0,0,0-.83-1.25,3.72,3.72,0,0,0-1.32-.8,5.15,5.15,0,0,0-1.77-.28,5.22,5.22,0,0,0-1.77.28,3.71,3.71,0,0,0-1.33.8,3.4,3.4,0,0,0-.82,1.25,4.43,4.43,0,0,0-.28,1.61,4.36,4.36,0,0,0,.28,1.6,3.41,3.41,0,0,0,.82,1.24,3.79,3.79,0,0,0,1.33.81A5.08,5.08,0,0,0,549.65,108.53Z"/><path d="M559.56,115.44V99.81h.82a.43.43,0,0,1,.47.39l.14,2.36a8.77,8.77,0,0,1,2.49-2.18,6.19,6.19,0,0,1,3.17-.82,5.88,5.88,0,0,1,2.27.41,4.17,4.17,0,0,1,1.63,1.18,5.22,5.22,0,0,1,1,1.85,8.42,8.42,0,0,1,.33,2.45v10h-1.49v-10a5.36,5.36,0,0,0-1-3.45,3.72,3.72,0,0,0-3.08-1.25,5.46,5.46,0,0,0-2.86.79,8.31,8.31,0,0,0-2.36,2.18v11.72Z"/><path d="M581.66,99.56a6.44,6.44,0,0,1,2.44.46,5.49,5.49,0,0,1,1.95,1.33,6.12,6.12,0,0,1,1.29,2.14,8.5,8.5,0,0,1,.46,2.92.78.78,0,0,1-.1.47.39.39,0,0,1-.32.13H576.1v.3a10.6,10.6,0,0,0,.41,3.09,6.35,6.35,0,0,0,1.16,2.24,4.79,4.79,0,0,0,1.82,1.36,6,6,0,0,0,2.39.46,7.14,7.14,0,0,0,2-.26,7.62,7.62,0,0,0,1.45-.58,8,8,0,0,0,.93-.58,1.06,1.06,0,0,1,.5-.26.36.36,0,0,1,.31.16l.41.5a4.28,4.28,0,0,1-1,.88,7.1,7.1,0,0,1-1.38.7,10,10,0,0,1-1.63.46,9,9,0,0,1-1.75.17,7.44,7.44,0,0,1-2.92-.56,6.21,6.21,0,0,1-2.26-1.63,7.44,7.44,0,0,1-1.46-2.62,11.19,11.19,0,0,1-.52-3.54,9.66,9.66,0,0,1,.48-3.1,7.1,7.1,0,0,1,1.38-2.45,6.29,6.29,0,0,1,2.21-1.61A7.28,7.28,0,0,1,581.66,99.56Zm0,1.12a5.86,5.86,0,0,0-2.17.38,4.73,4.73,0,0,0-1.65,1.08,5.53,5.53,0,0,0-1.13,1.7,7.73,7.73,0,0,0-.57,2.21h10.29a6.86,6.86,0,0,0-.35-2.25,4.82,4.82,0,0,0-1-1.69,4.2,4.2,0,0,0-1.51-1.06A5,5,0,0,0,581.68,100.67Z"/><path d="M591,115.44V99.81h.79a.55.55,0,0,1,.38.11.54.54,0,0,1,.13.38l.13,3.3a7.44,7.44,0,0,1,2-3,4.59,4.59,0,0,1,3.09-1.08,5.37,5.37,0,0,1,1.3.15,5,5,0,0,1,1.13.43l-.2,1a.28.28,0,0,1-.31.25.85.85,0,0,1-.27-.06l-.43-.14a5.23,5.23,0,0,0-.64-.14,5.34,5.34,0,0,0-.86-.06,4,4,0,0,0-2.91,1.1,7.87,7.87,0,0,0-1.85,3.17v10.16Z"/></g></g></svg>